<svg xmlns="http://www.w3.org/2000/svg" xmlns:xlink="http://www.w3.org/1999/xlink" version="1.1" data-diagram-type="DESCRIPTION" style="width:3068px;height:975px;background:#FAF9FF;" width="3068px" height="975px" viewBox="0 0 3068 975" zoomAndPan="magnify" preserveAspectRatio="none" contentStyleType="text/css"><?plantuml 1.2026.7beta11?><defs/><g font-family="sans-serif" lengthAdjust="spacing"><rect x="0" y="0" width="3068" height="975" fill="#FAF9FF" style="stroke:none;"/><g class="title" data-source-line="1"><text x="1334.326" y="22.995" fill="#000" font-size="14" textLength="392.875" font-weight="700">A-COP deployment units and packaging boundary</text></g><!--cluster Dev--><g class="cluster" data-qualified-name="Dev" id="ent0001" data-source-line="28"><polygon points="625,53.297,635,43.297,1088,43.297,1088,371.837,1078,381.837,625,381.837,625,53.297" fill="#F5F3FF" style="stroke:#7C3AED;stroke-width:1;stroke-linejoin:miter;stroke-miterlimit:10;"/><line x1="1078" y1="53.297" x2="1088" y2="43.297" style="stroke:#7C3AED;stroke-width:1;"/><line x1="625" y1="53.297" x2="1078" y2="53.297" style="stroke:#7C3AED;stroke-width:1;"/><line x1="1078" y1="53.297" x2="1078" y2="381.837" style="stroke:#7C3AED;stroke-width:1;"/><text x="824.303" y="69.292" fill="#000" font-size="14" textLength="56.394" font-weight="700">개발 환경</text><text x="801.13" y="85.589" fill="#000" font-size="14" textLength="102.739" font-weight="700">Phase 1 / 현재</text></g><!--cluster CustomerBuild--><g class="cluster" data-qualified-name="CustomerBuild" id="ent0005" data-source-line="34"><polygon points="259,245.037,269,235.037,585,235.037,585,545.577,575,555.577,259,555.577,259,245.037" fill="#DBEAFE" style="stroke:#2563EB;stroke-width:1;stroke-linejoin:miter;stroke-miterlimit:10;"/><line x1="575" y1="245.037" x2="585" y2="235.037" style="stroke:#2563EB;stroke-width:1;"/><line x1="259" y1="245.037" x2="575" y2="245.037" style="stroke:#2563EB;stroke-width:1;"/><line x1="575" y1="245.037" x2="575" y2="555.577" style="stroke:#2563EB;stroke-width:1;"/><text x="383.755" y="261.032" fill="#000" font-size="14" textLength="68.489" font-style="italic">«release»</text><text x="361.606" y="277.329" fill="#000" font-size="14" textLength="112.788" font-weight="700">고객용 릴리즈 빌드</text><text x="374.486" y="293.626" fill="#000" font-size="14" textLength="87.028" font-weight="700">항상 설치 대상</text></g><!--cluster AdminBuild--><g class="cluster" data-qualified-name="AdminBuild" id="ent0009" data-source-line="40"><polygon points="1128,236.887,1138,226.887,1517,226.887,1517,545.577,1507,555.577,1128,555.577,1128,236.887" fill="#FCE7F3" style="stroke:#DB2777;stroke-width:1;stroke-linejoin:miter;stroke-miterlimit:10;"/><line x1="1507" y1="236.887" x2="1517" y2="226.887" style="stroke:#DB2777;stroke-width:1;"/><line x1="1128" y1="236.887" x2="1507" y2="236.887" style="stroke:#DB2777;stroke-width:1;"/><line x1="1507" y1="236.887" x2="1507" y2="555.577" style="stroke:#DB2777;stroke-width:1;"/><text x="1288.001" y="252.882" fill="#000" font-size="14" textLength="60.997" font-style="italic">«admin»</text><text x="1283.863" y="269.179" fill="#000" font-size="14" textLength="69.274" font-weight="700">관리용 빌드</text><text x="1274.986" y="285.476" fill="#000" font-size="14" textLength="87.028" font-weight="700">선택 설치 대상</text></g><!--cluster UI--><g class="cluster" data-qualified-name="UI" id="ent0017" data-source-line="53"><polygon points="16,53.597,26,43.597,211,43.597,211,176.887,201,186.887,16,186.887,16,53.597" fill="#F5F3FF" style="stroke:#7C3AED;stroke-width:1;stroke-linejoin:miter;stroke-miterlimit:10;"/><line x1="201" y1="53.597" x2="211" y2="43.597" style="stroke:#7C3AED;stroke-width:1;"/><line x1="16" y1="53.597" x2="201" y2="53.597" style="stroke:#7C3AED;stroke-width:1;"/><line x1="201" y1="53.597" x2="201" y2="186.887" style="stroke:#7C3AED;stroke-width:1;"/><text x="49.651" y="69.592" fill="#000" font-size="14" textLength="119.697" font-weight="700">final_project_ui</text><text x="74.863" y="85.889" fill="#000" font-size="14" textLength="69.274" font-weight="700">독립 서비스</text><text x="74.863" y="102.186" fill="#000" font-size="14" textLength="69.274" font-weight="700">패키지 아님</text></g><!--cluster SharedInfra--><g class="cluster" data-qualified-name="SharedInfra" id="ent0019" data-source-line="57"><rect x="1565" y="421.837" width="415" height="272.63" fill="none" style="stroke:#181818;stroke-width:1;" rx="2.5" ry="2.5"/><text x="1686.873" y="436.832" fill="#000" font-size="14" textLength="171.254" font-weight="700">Shared infrastructure</text></g><!--entity Source--><g class="entity" data-qualified-name="Dev.Source" id="ent0002" data-source-line="29"><rect x="720.11" y="107.297" width="253.788" height="71.891" fill="#EDE9FE" style="stroke:#7C3AED;stroke-width:0.5;" rx="2.5" ry="2.5"/><polygon points="956.898,112.297,956.898,126.297,968.898,126.297,968.898,118.297,962.898,112.297,956.898,112.297" fill="#EDE9FE" style="stroke:#7C3AED;stroke-width:0.5;stroke-linejoin:miter;stroke-miterlimit:10;"/><line x1="962.898" y1="112.297" x2="962.898" y2="118.297" style="stroke:#7C3AED;stroke-width:0.5;"/><line x1="968.898" y1="118.297" x2="962.898" y2="118.297" style="stroke:#7C3AED;stroke-width:0.5;"/><text x="730.11" y="133.292" fill="#000" font-size="14" textLength="55.97">소스 트리</text><text x="730.11" y="149.589" fill="#000" font-size="14" textLength="183.347">app/core · app/application</text><text x="730.11" y="165.886" fill="#000" font-size="14" textLength="223.788">app/domain · app/infrastructure</text></g><!--entity BasementDev--><g class="entity" data-qualified-name="Dev.BasementDev" id="ent0003" data-source-line="30"><rect x="648.7" y="318.537" width="186.604" height="39.297" fill="#EDE9FE" style="stroke:#7C3AED;stroke-width:0.5;" rx="2.5" ry="2.5"/><polygon points="818.304,323.537,818.304,337.537,830.304,337.537,830.304,329.537,824.304,323.537,818.304,323.537" fill="#EDE9FE" style="stroke:#7C3AED;stroke-width:0.5;stroke-linejoin:miter;stroke-miterlimit:10;"/><line x1="824.304" y1="323.537" x2="824.304" y2="329.537" style="stroke:#7C3AED;stroke-width:0.5;"/><line x1="830.304" y1="329.537" x2="824.304" y2="329.537" style="stroke:#7C3AED;stroke-width:0.5;"/><text x="658.7" y="344.532" fill="#000" font-size="14" textLength="156.604">acop_basement wheel</text></g><!--entity ComposerDev--><g class="entity" data-qualified-name="Dev.ComposerDev" id="ent0004" data-source-line="31"><rect x="870.18" y="318.537" width="185.634" height="39.297" fill="#EDE9FE" style="stroke:#7C3AED;stroke-width:0.5;" rx="2.5" ry="2.5"/><polygon points="1038.814,323.537,1038.814,337.537,1050.814,337.537,1050.814,329.537,1044.814,323.537,1038.814,323.537" fill="#EDE9FE" style="stroke:#7C3AED;stroke-width:0.5;stroke-linejoin:miter;stroke-miterlimit:10;"/><line x1="1044.814" y1="323.537" x2="1044.814" y2="329.537" style="stroke:#7C3AED;stroke-width:0.5;"/><line x1="1050.814" y1="329.537" x2="1044.814" y2="329.537" style="stroke:#7C3AED;stroke-width:0.5;"/><text x="880.18" y="344.532" fill="#000" font-size="14" textLength="155.634">acop_composer wheel</text></g><!--entity BasementRelease--><g class="entity" data-qualified-name="CustomerBuild.BasementRelease" id="ent0006" data-source-line="35"><rect x="282.97" y="475.987" width="270.058" height="55.594" fill="#EDE9FE" style="stroke:#7C3AED;stroke-width:0.5;" rx="2.5" ry="2.5"/><polygon points="536.028,480.987,536.028,494.987,548.028,494.987,548.028,486.987,542.028,480.987,536.028,480.987" fill="#EDE9FE" style="stroke:#7C3AED;stroke-width:0.5;stroke-linejoin:miter;stroke-miterlimit:10;"/><line x1="542.028" y1="480.987" x2="542.028" y2="486.987" style="stroke:#7C3AED;stroke-width:0.5;"/><line x1="548.028" y1="486.987" x2="542.028" y2="486.987" style="stroke:#7C3AED;stroke-width:0.5;"/><text x="292.97" y="501.982" fill="#000" font-size="14" textLength="110.715">acop_basement</text><text x="292.97" y="518.279" fill="#000" font-size="14" textLength="240.058">Core / Team / Registry / Controller</text></g><!--entity CustomerRuntime--><g class="entity" data-qualified-name="CustomerBuild.CustomerRuntime" id="ent0007" data-source-line="36"><polygon points="344.29,325.037,354.29,315.037,491.71,315.037,491.71,351.334,481.71,361.334,344.29,361.334,344.29,325.037" fill="#F5F3FF" style="stroke:#7C3AED;stroke-width:0.5;stroke-linejoin:miter;stroke-miterlimit:10;"/><line x1="481.71" y1="325.037" x2="491.71" y2="315.037" style="stroke:#7C3AED;stroke-width:0.5;"/><line x1="344.29" y1="325.037" x2="481.71" y2="325.037" style="stroke:#7C3AED;stroke-width:0.5;"/><line x1="481.71" y1="325.037" x2="481.71" y2="361.334" style="stroke:#7C3AED;stroke-width:0.5;"/><text x="359.29" y="348.032" fill="#000" font-size="14" textLength="107.42">A-COP Runtime</text></g><!--entity BasementAdmin--><g class="entity" data-qualified-name="AdminBuild.BasementAdmin" id="ent0010" data-source-line="41"><rect x="1151.64" y="484.137" width="140.715" height="39.297" fill="#EDE9FE" style="stroke:#7C3AED;stroke-width:0.5;" rx="2.5" ry="2.5"/><polygon points="1275.355,489.137,1275.355,503.137,1287.355,503.137,1287.355,495.137,1281.355,489.137,1275.355,489.137" fill="#EDE9FE" style="stroke:#7C3AED;stroke-width:0.5;stroke-linejoin:miter;stroke-miterlimit:10;"/><line x1="1281.355" y1="489.137" x2="1281.355" y2="495.137" style="stroke:#7C3AED;stroke-width:0.5;"/><line x1="1287.355" y1="495.137" x2="1281.355" y2="495.137" style="stroke:#7C3AED;stroke-width:0.5;"/><text x="1161.64" y="510.132" fill="#000" font-size="14" textLength="110.715">acop_basement</text></g><!--entity ComposerAdmin--><g class="entity" data-qualified-name="AdminBuild.ComposerAdmin" id="ent0011" data-source-line="42"><rect x="1327.5" y="475.987" width="157" height="55.594" fill="#EDE9FE" style="stroke:#7C3AED;stroke-width:0.5;" rx="2.5" ry="2.5"/><polygon points="1467.5,480.987,1467.5,494.987,1479.5,494.987,1479.5,486.987,1473.5,480.987,1467.5,480.987" fill="#EDE9FE" style="stroke:#7C3AED;stroke-width:0.5;stroke-linejoin:miter;stroke-miterlimit:10;"/><line x1="1473.5" y1="480.987" x2="1473.5" y2="486.987" style="stroke:#7C3AED;stroke-width:0.5;"/><line x1="1479.5" y1="486.987" x2="1473.5" y2="486.987" style="stroke:#7C3AED;stroke-width:0.5;"/><text x="1337.5" y="501.982" fill="#000" font-size="14" textLength="109.744">acop_composer</text><text x="1337.5" y="518.279" fill="#000" font-size="14" textLength="127">토글 endpoint glue</text></g><!--entity AdminRuntime--><g class="entity" data-qualified-name="AdminBuild.AdminRuntime" id="ent0012" data-source-line="43"><polygon points="1224.19,316.887,1234.19,306.887,1401.811,306.887,1401.811,359.481,1391.811,369.481,1224.19,369.481,1224.19,316.887" fill="#F5F3FF" style="stroke:#7C3AED;stroke-width:0.5;stroke-linejoin:miter;stroke-miterlimit:10;"/><line x1="1391.811" y1="316.887" x2="1401.811" y2="306.887" style="stroke:#7C3AED;stroke-width:0.5;"/><line x1="1224.19" y1="316.887" x2="1391.811" y2="316.887" style="stroke:#7C3AED;stroke-width:0.5;"/><line x1="1391.811" y1="316.887" x2="1391.811" y2="369.481" style="stroke:#7C3AED;stroke-width:0.5;"/><text x="1239.19" y="339.882" fill="#000" font-size="14" textLength="123.601">A-COP Runtime +</text><text x="1239.19" y="356.179" fill="#000" font-size="14" textLength="137.621">Composer endpoint</text></g><!--entity UIArtifact--><g class="entity" data-qualified-name="UI.UIArtifact" id="ent0018" data-source-line="54"><rect x="54.51" y="123.597" width="98.975" height="39.297" fill="#EDE9FE" style="stroke:#7C3AED;stroke-width:0.5;" rx="2.5" ry="2.5"/><polygon points="136.485,128.597,136.485,142.597,148.485,142.597,148.485,134.597,142.485,128.597,136.485,128.597" fill="#EDE9FE" style="stroke:#7C3AED;stroke-width:0.5;stroke-linejoin:miter;stroke-miterlimit:10;"/><line x1="142.485" y1="128.597" x2="142.485" y2="134.597" style="stroke:#7C3AED;stroke-width:0.5;"/><line x1="148.485" y1="134.597" x2="142.485" y2="134.597" style="stroke:#7C3AED;stroke-width:0.5;"/><text x="64.51" y="149.592" fill="#000" font-size="14" textLength="68.975">UI service</text></g><!--entity PostgreSQL--><g class="entity" data-qualified-name="SharedInfra.PostgreSQL" id="ent0020" data-source-line="58"><path d="M1603.62,482.987 C1603.62,472.987 1653.996,472.987 1653.996,472.987 C1653.996,472.987 1704.373,472.987 1704.373,482.987 L1704.373,524.581 C1704.373,534.581 1653.996,534.581 1653.996,534.581 C1653.996,534.581 1603.62,534.581 1603.62,524.581 L1603.62,482.987" style="stroke:#0891B2;stroke-width:0.5;" fill="#CFFAFE"/><path d="M1603.62,482.987 C1603.62,492.987 1653.996,492.987 1653.996,492.987 C1653.996,492.987 1704.373,492.987 1704.373,482.987" style="stroke:#0891B2;stroke-width:0.5;" fill="none"/><text x="1613.62" y="509.982" fill="#000" font-size="14" textLength="80.753">PostgreSQL</text><text x="1613.62" y="526.279" fill="#000" font-size="14" textLength="78.36">+ pgvector</text></g><!--entity GraphDB--><g class="entity" data-qualified-name="SharedInfra.GraphDB" id="ent0021" data-source-line="59"><path d="M1739.72,474.837 C1739.72,464.837 1835.997,464.837 1835.997,464.837 C1835.997,464.837 1932.273,464.837 1932.273,474.837 L1932.273,532.728 C1932.273,542.728 1835.997,542.728 1835.997,542.728 C1835.997,542.728 1739.72,542.728 1739.72,532.728 L1739.72,474.837" style="stroke:#0891B2;stroke-width:0.5;" fill="#CFFAFE"/><path d="M1739.72,474.837 C1739.72,484.837 1835.997,484.837 1835.997,484.837 C1835.997,484.837 1932.273,484.837 1932.273,474.837" style="stroke:#0891B2;stroke-width:0.5;" fill="none"/><text x="1801.854" y="501.832" fill="#000" font-size="14" textLength="68.284" font-style="italic">«phase2»</text><text x="1749.72" y="518.129" fill="#000" font-size="14" textLength="67.778">Graph DB</text><text x="1749.72" y="534.426" fill="#000" font-size="14" textLength="172.553">선택: Phase 2 / 채택 게이트</text></g><!--entity LLM--><g class="entity" data-qualified-name="SharedInfra.LLM" id="ent0022" data-source-line="60"><polygon points="1588.62,626.027,1598.62,616.027,1719.388,616.027,1719.388,652.324,1709.388,662.324,1588.62,662.324,1588.62,626.027" fill="#F5F3FF" style="stroke:#7C3AED;stroke-width:0.5;stroke-linejoin:miter;stroke-miterlimit:10;"/><line x1="1709.388" y1="626.027" x2="1719.388" y2="616.027" style="stroke:#7C3AED;stroke-width:0.5;"/><line x1="1588.62" y1="626.027" x2="1709.388" y2="626.027" style="stroke:#7C3AED;stroke-width:0.5;"/><line x1="1709.388" y1="626.027" x2="1709.388" y2="662.324" style="stroke:#7C3AED;stroke-width:0.5;"/><text x="1603.62" y="649.022" fill="#000" font-size="14" textLength="90.768">LLM provider</text></g><!--entity A2A--><g class="entity" data-qualified-name="SharedInfra.A2A" id="ent0023" data-source-line="61"><polygon points="1754.33,617.877,1764.33,607.877,1947.66,607.877,1947.66,660.471,1937.66,670.471,1754.33,670.471,1754.33,617.877" fill="#F5F3FF" style="stroke:#7C3AED;stroke-width:0.5;stroke-linejoin:miter;stroke-miterlimit:10;"/><line x1="1937.66" y1="617.877" x2="1947.66" y2="607.877" style="stroke:#7C3AED;stroke-width:0.5;"/><line x1="1754.33" y1="617.877" x2="1937.66" y2="617.877" style="stroke:#7C3AED;stroke-width:0.5;"/><line x1="1937.66" y1="617.877" x2="1937.66" y2="670.471" style="stroke:#7C3AED;stroke-width:0.5;"/><text x="1769.33" y="640.872" fill="#000" font-size="14" textLength="87.158">A2A Remote</text><text x="1769.33" y="657.169" fill="#000" font-size="14" textLength="153.33">Catalog &amp; Verification</text></g><g class="entity" data-qualified-name="GMN35" id="ent0036" data-source-line="79"><path d="M2365.73,468.517 L2365.73,539.048 L2574.272,539.048 L2574.272,478.517 L2564.272,468.517 L2365.73,468.517" style="stroke:#181818;stroke-width:0.5;" fill="#FEFFDD"/><path d="M2564.272,468.517 L2564.272,478.517 L2574.272,478.517 L2564.272,468.517" style="stroke:#181818;stroke-width:1;" fill="#FEFFDD"/><text x="2371.73" y="485.584" fill="#000" font-size="13" textLength="162.765">데이터 접근 -> PostgreSQL</text><text x="2371.73" y="500.717" fill="#000" font-size="13" textLength="187.542">GraphStorePort -> Graph DB</text><text x="2371.73" y="515.849" fill="#000" font-size="13" textLength="160.069">LLMPort -> LLM provider</text><text x="2371.73" y="530.982" fill="#000" font-size="13" textLength="186.773">A2A Adapter -> A2A Remote</text></g><g class="entity" data-qualified-name="GMN38" id="ent0039" data-source-line="86"><path d="M1549.16,123.107 L1549.16,163.373 L1828.849,163.373 L1828.849,133.107 L1818.849,123.107 L1549.16,123.107" style="stroke:#181818;stroke-width:0.5;" fill="#FEFFDD"/><path d="M1818.849,123.107 L1818.849,133.107 L1828.849,133.107 L1818.849,123.107" style="stroke:#181818;stroke-width:1;" fill="#FEFFDD"/><text x="1555.16" y="140.174" fill="#000" font-size="13" textLength="258.689">현재 기준: 로컬 개발 환경에는 Docker가 없다.</text><text x="1555.16" y="155.307" fill="#000" font-size="13" textLength="251.127">로컬은 PostgreSQL 직접 실행으로 진행한다.</text></g><g class="entity" data-qualified-name="GMN41" id="ent0042" data-source-line="91"><path d="M2007.52,483.647 L2007.52,523.913 L2330.487,523.913 L2330.487,493.647 L2320.487,483.647 L2007.52,483.647" style="stroke:#181818;stroke-width:0.5;" fill="#FEFFDD"/><path d="M2320.487,483.647 L2320.487,493.647 L2330.487,493.647 L2320.487,483.647" style="stroke:#181818;stroke-width:1;" fill="#FEFFDD"/><text x="2013.52" y="500.714" fill="#000" font-size="13" textLength="301.967">고객용 빌드에는 acop_composer가 존재하지 않는다.</text><text x="2013.52" y="515.847" fill="#000" font-size="13" textLength="290.908">acop_basement는 컴포저 코드를 포함하지 않는다.</text></g><g class="entity" data-qualified-name="GMN44" id="ent0045" data-source-line="96"><path d="M2754.48,476.077 L2754.48,531.475 L3053.527,531.475 L3053.527,486.077 L3043.527,476.077 L2754.48,476.077" style="stroke:#181818;stroke-width:0.5;" fill="#FEFFDD"/><path d="M3043.527,476.077 L3043.527,486.077 L3053.527,486.077 L3043.527,476.077" style="stroke:#181818;stroke-width:1;" fill="#FEFFDD"/><text x="2760.48" y="493.144" fill="#000" font-size="13" textLength="278.047">관리용 빌드만 acop_composer를 선택 설치한다.</text><text x="2760.48" y="508.277" fill="#000" font-size="13" textLength="226.454">final_project_ui는 pip 패키지가 아니며</text><text x="2760.48" y="523.409" fill="#000" font-size="13" textLength="200.194">대상 Python을 import하지 않는다.</text></g><!--entity DeployPhase--><g class="entity" data-qualified-name="DeployPhase" id="ent0047" data-source-line="101"><polygon points="2608.86,474.337,2618.86,464.337,2719.144,464.337,2719.144,533.228,2709.144,543.228,2608.86,543.228,2608.86,474.337" fill="#FEF3C7" style="stroke:#D97706;stroke-width:0.5;stroke-linejoin:miter;stroke-miterlimit:10;"/><line x1="2709.144" y1="474.337" x2="2719.144" y2="464.337" style="stroke:#D97706;stroke-width:0.5;"/><line x1="2608.86" y1="474.337" x2="2709.144" y2="474.337" style="stroke:#D97706;stroke-width:0.5;"/><line x1="2709.144" y1="474.337" x2="2709.144" y2="543.228" style="stroke:#D97706;stroke-width:0.5;"/><text x="2624.86" y="497.332" fill="#000" font-size="14" textLength="68.284" font-style="italic">«phase2»</text><text x="2631.017" y="513.629" fill="#000" font-size="14" textLength="55.97">실제 배포</text><text x="2631.017" y="529.926" fill="#000" font-size="14" textLength="55.159">Phase 2</text></g><!--entity Images--><g class="entity" data-qualified-name="Images" id="ent0048" data-source-line="102"><rect x="2601.7" y="603.227" width="124.61" height="71.891" fill="#EDE9FE" style="stroke:#7C3AED;stroke-width:0.5;" rx="2.5" ry="2.5"/><polygon points="2709.31,608.227,2709.31,622.227,2721.31,622.227,2721.31,614.227,2715.31,608.227,2709.31,608.227" fill="#EDE9FE" style="stroke:#7C3AED;stroke-width:0.5;stroke-linejoin:miter;stroke-miterlimit:10;"/><line x1="2715.31" y1="608.227" x2="2715.31" y2="614.227" style="stroke:#7C3AED;stroke-width:0.5;"/><line x1="2721.31" y1="614.227" x2="2715.31" y2="614.227" style="stroke:#7C3AED;stroke-width:0.5;"/><text x="2624.863" y="629.222" fill="#000" font-size="14" textLength="68.284" font-style="italic">«phase2»</text><text x="2611.7" y="645.519" fill="#000" font-size="14" textLength="94.61">컨테이너 이미지</text><text x="2611.7" y="661.816" fill="#000" font-size="14" textLength="90.897">고객용 / 관리용</text></g><!--entity AWS--><g class="entity" data-qualified-name="AWS" id="ent0049" data-source-line="103"><polygon points="2597.64,745.117,2607.64,735.117,2730.367,735.117,2730.367,804.008,2720.367,814.008,2597.64,814.008,2597.64,745.117" fill="#FEF3C7" style="stroke:#D97706;stroke-width:0.5;stroke-linejoin:miter;stroke-miterlimit:10;"/><line x1="2720.367" y1="745.117" x2="2730.367" y2="735.117" style="stroke:#D97706;stroke-width:0.5;"/><line x1="2597.64" y1="745.117" x2="2720.367" y2="745.117" style="stroke:#D97706;stroke-width:0.5;"/><line x1="2720.367" y1="745.117" x2="2720.367" y2="814.008" style="stroke:#D97706;stroke-width:0.5;"/><text x="2624.861" y="768.112" fill="#000" font-size="14" textLength="68.284" font-style="italic">«phase2»</text><text x="2612.64" y="784.409" fill="#000" font-size="14" textLength="92.727">AWS 배포 대상</text><text x="2612.64" y="800.706" fill="#000" font-size="14" textLength="55.159">Phase 2</text></g><!--link CustomerRuntime to BasementRelease--><g class="link" data-entity-1="ent0007" data-entity-2="ent0006" id="lnk8" data-source-line="37" data-link-type="dependency"><path d="M393.43,361.557 C393.43,391.517 393.43,438.407 393.43,470.537" style="stroke:#4B5563;stroke-width:1;stroke-dasharray:7,7;" fill="none" id="CustomerRuntime-to-BasementRelease"/><polygon points="393.43,475.537,397.43,466.537,393.43,470.537,389.43,466.537,393.43,475.537" fill="#4B5563" style="stroke:#4B5563;stroke-width:1;stroke-linejoin:miter;stroke-miterlimit:10;"/><text x="369.43" y="414.614" fill="#000" font-size="13" textLength="23.92">설치</text></g><!--link AdminRuntime to BasementAdmin--><g class="link" data-entity-1="ent0012" data-entity-2="ent0010" id="lnk13" data-source-line="44" data-link-type="dependency"><path d="M1258.27,369.727 C1258.27,403.317 1258.27,450.477 1258.27,478.807" style="stroke:#4B5563;stroke-width:1;stroke-dasharray:7,7;" fill="none" id="AdminRuntime-to-BasementAdmin"/><polygon points="1258.27,483.807,1262.27,474.807,1258.27,478.807,1254.27,474.807,1258.27,483.807" fill="#4B5563" style="stroke:#4B5563;stroke-width:1;stroke-linejoin:miter;stroke-miterlimit:10;"/><text x="1234.27" y="422.834" fill="#000" font-size="13" textLength="23.92">설치</text></g><!--link AdminRuntime to ComposerAdmin--><g class="link" data-entity-1="ent0012" data-entity-2="ent0011" id="lnk14" data-source-line="45" data-link-type="dependency"><path d="M1364.66,369.727 C1364.66,400.317 1364.66,441.297 1364.66,470.667" style="stroke:#4B5563;stroke-width:1;stroke-dasharray:7,7;" fill="none" id="AdminRuntime-to-ComposerAdmin"/><polygon points="1364.66,475.667,1368.66,466.667,1364.66,470.667,1360.66,466.667,1364.66,475.667" fill="#4B5563" style="stroke:#4B5563;stroke-width:1;stroke-linejoin:miter;stroke-miterlimit:10;"/><text x="1312.66" y="418.764" fill="#000" font-size="13" textLength="51.972">선택 설치</text></g><!--link AdminBuild to Dev--><!--link CustomerBuild to AdminBuild--><!--link UI to CustomerBuild--><!--link CustomerBuild to SharedInfra--><!--link Source to BasementDev--><g class="link" data-entity-1="ent0002" data-entity-2="ent0003" id="lnk26" data-source-line="67" data-link-type="dependency"><path d="M777.7,179.457 C777.7,220.417 777.7,280.647 777.7,313.257" style="stroke:#4B5563;stroke-width:1;stroke-dasharray:7,7;" fill="none" id="Source-to-BasementDev"/><polygon points="777.7,318.257,781.7,309.257,777.7,313.257,773.7,309.257,777.7,318.257" fill="#4B5563" style="stroke:#4B5563;stroke-width:1;stroke-linejoin:miter;stroke-miterlimit:10;"/><text x="753.7" y="244.924" fill="#000" font-size="13" textLength="23.92">빌드</text></g><!--link Source to ComposerDev--><g class="link" data-entity-1="ent0002" data-entity-2="ent0004" id="lnk27" data-source-line="68" data-link-type="dependency"><path d="M922.04,179.457 C922.04,220.417 922.04,280.647 922.04,313.257" style="stroke:#4B5563;stroke-width:1;stroke-dasharray:7,7;" fill="none" id="Source-to-ComposerDev"/><polygon points="922.04,318.257,926.04,309.257,922.04,313.257,918.04,309.257,922.04,318.257" fill="#4B5563" style="stroke:#4B5563;stroke-width:1;stroke-linejoin:miter;stroke-miterlimit:10;"/><text x="898.04" y="244.924" fill="#000" font-size="13" textLength="23.92">빌드</text></g><!--link BasementDev to BasementRelease--><g class="link" data-entity-1="ent0003" data-entity-2="ent0006" id="lnk28" data-source-line="69" data-link-type="dependency"><path d="M648.22,349.007 C588.52,349.007 522.37,349.007 522.37,349.007 C522.37,349.007 522.37,426.147 522.37,470.757" style="stroke:#4B5563;stroke-width:1;stroke-dasharray:7,7;" fill="none" id="BasementDev-to-BasementRelease"/><polygon points="522.37,475.757,526.37,466.757,522.37,470.757,518.37,466.757,522.37,475.757" fill="#4B5563" style="stroke:#4B5563;stroke-width:1;stroke-linejoin:miter;stroke-miterlimit:10;"/><text x="523.37" y="362.524" fill="#000" font-size="13" textLength="75.892">고객용 패키지</text></g><!--link BasementDev to BasementAdmin--><g class="link" data-entity-1="ent0003" data-entity-2="ent0010" id="lnk29" data-source-line="70" data-link-type="dependency"><path d="M742,358.187 C742,402.287 742,504.007 742,504.007 C742,504.007 1012.65,504.007 1146.17,504.007" style="stroke:#4B5563;stroke-width:1;stroke-dasharray:7,7;" fill="none" id="BasementDev-to-BasementAdmin"/><polygon points="1151.17,504.007,1142.17,500.007,1146.17,504.007,1142.17,508.007,1151.17,504.007" fill="#4B5563" style="stroke:#4B5563;stroke-width:1;stroke-linejoin:miter;stroke-miterlimit:10;"/><text x="797.68" y="500.074" fill="#000" font-size="13" textLength="75.892">관리용 패키지</text></g><!--link ComposerDev to ComposerAdmin--><g class="link" data-entity-1="ent0004" data-entity-2="ent0011" id="lnk30" data-source-line="71" data-link-type="dependency"><path d="M963,358.047 C963,397.287 963,481.007 963,481.007 C963,481.007 1194.69,481.007 1322.06,481.007" style="stroke:#4B5563;stroke-width:1;stroke-dasharray:7,7;" fill="none" id="ComposerDev-to-ComposerAdmin"/><polygon points="1327.06,481.007,1318.06,477.007,1322.06,481.007,1318.06,485.007,1327.06,481.007" fill="#4B5563" style="stroke:#4B5563;stroke-width:1;stroke-linejoin:miter;stroke-miterlimit:10;"/><text x="1007.55" y="477.074" fill="#000" font-size="13" textLength="75.892">관리용 패키지</text></g><!--link UI to CustomerRuntime--><g class="link" data-entity-1="ent0017" data-entity-2="ent0007" id="lnk31" data-source-line="73" data-link-type="dependency"><path d="M203,187.391 C203,187.706 203,188.023 203,188.34 C203,188.976 203,189.615 203,190.259 C203,191.546 203,192.849 203,194.167 C203,199.44 203,204.952 203,210.614 C203,221.94 203,233.871 203,245.712 C203,293.077 203,339.007 203,339.007 C203,339.007 276.82,339.007 339.01,339.007" style="stroke:#4B5563;stroke-width:1;" fill="none" id="UI-to-CustomerRuntime"/><polygon points="344.01,339.007,335.01,335.007,339.01,339.007,335.01,343.007,344.01,339.007" fill="#4B5563" style="stroke:#4B5563;stroke-width:1;stroke-linejoin:miter;stroke-miterlimit:10;"/><text x="137" y="307.974" fill="#000" font-size="13" textLength="65.127">HTTP only</text></g><!--link UI to AdminRuntime--><g class="link" data-entity-1="ent0017" data-entity-2="ent0012" id="lnk32" data-source-line="74" data-link-type="dependency"><path d="M177.74,187.014 C177.74,187.303 177.74,187.593 177.74,187.884 C177.74,188.466 177.74,189.052 177.74,189.64 C177.74,191.995 177.74,194.4 177.74,196.847 C177.74,206.632 177.74,217.069 177.74,227.507 C177.74,269.257 177.74,311.007 177.74,311.007 C177.74,311.007 951.29,311.007 1218.92,311.007" style="stroke:#4B5563;stroke-width:1;" fill="none" id="UI-to-AdminRuntime"/><polygon points="1223.92,311.007,1214.92,307.007,1218.92,311.007,1214.92,315.007,1223.92,311.007" fill="#4B5563" style="stroke:#4B5563;stroke-width:1;stroke-linejoin:miter;stroke-miterlimit:10;"/><text x="538.84" y="307.074" fill="#000" font-size="13" textLength="65.127">HTTP only</text></g><!--link CustomerRuntime to SharedInfra--><g class="link" data-entity-1="ent0007" data-entity-2="ent0019" id="lnk33" data-source-line="75" data-link-type="dependency"><path d="M442.57,361.777 C442.57,392.127 442.57,441.007 442.57,441.007 C442.57,441.007 1990.26,441.007 1990.26,441.007 C1990.26,441.007 1990.26,504.007 1990.26,504.007 C1990.26,504.007 1986.765,504.007 1982.833,504.007 C1982.341,504.007 1981.843,504.007 1981.343,504.007 C1981.094,504.007 1980.844,504.007 1980.594,504.007 C1980.47,504.007 1980.345,504.007 1980.221,504.007 C1980.159,504.007 1985.097,504.007 1985.035,504.007" style="stroke:#4B5563;stroke-width:1;" fill="none" id="CustomerRuntime-to-SharedInfra"/><polygon points="1980.035,504.007,1989.035,508.007,1985.035,504.007,1989.035,500.007,1980.035,504.007" fill="#4B5563" style="stroke:#4B5563;stroke-width:1;stroke-linejoin:miter;stroke-miterlimit:10;"/><text x="1114.04" y="437.074" fill="#000" font-size="13" textLength="102.045">shared services</text></g><!--link AdminRuntime to SharedInfra--><g class="link" data-entity-1="ent0012" data-entity-2="ent0019" id="lnk34" data-source-line="76" data-link-type="dependency"><path d="M1402.16,360.007 C1575.26,360.007 1939.97,360.007 1939.97,360.007 C1939.97,360.007 1939.97,369.007 1939.97,382.507 C1939.97,389.257 1939.97,397.132 1939.97,405.569 C1939.97,409.788 1939.97,414.148 1939.97,418.577 C1939.97,419.131 1939.97,419.686 1939.97,420.241 C1939.97,420.519 1939.97,415.797 1939.97,416.076" style="stroke:#4B5563;stroke-width:1;" fill="none" id="AdminRuntime-to-SharedInfra"/><polygon points="1939.97,421.076,1943.97,412.076,1939.97,416.076,1935.97,412.076,1939.97,421.076" fill="#4B5563" style="stroke:#4B5563;stroke-width:1;stroke-linejoin:miter;stroke-miterlimit:10;"/><text x="1655.69" y="356.074" fill="#000" font-size="13" textLength="102.045">shared services</text></g><!--link SharedInfra to GMN35--><g class="link" data-entity-1="ent0019" data-entity-2="ent0036" id="lnk37" data-source-line="79" data-link-type="association"><path d="M1980.417,477.007 C1981.197,477.007 1982.028,477.007 1982.908,477.007 C1989.954,477.007 2000.182,477.007 2012.912,477.007 C2038.372,477.007 2073.841,477.007 2113.874,477.007 C2193.94,477.007 2292.265,477.007 2365.3,477.007" style="stroke:#4B5563;stroke-width:1;stroke-dasharray:7,7;" fill="none" id="SharedInfra-GMN35"/></g><!--link Dev to GMN38--><g class="link" data-entity-1="ent0001" data-entity-2="ent0039" id="lnk40" data-source-line="86" data-link-type="association"><path d="M1088.528,154.007 C1088.955,154.007 1089.397,154.007 1089.853,154.007 C1090.767,154.007 1091.741,154.007 1092.773,154.007 C1101.028,154.007 1113.023,154.007 1127.978,154.007 C1157.889,154.007 1199.644,154.007 1247.018,154.007 C1341.765,154.007 1458.99,154.007 1548.9,154.007" style="stroke:#4B5563;stroke-width:1;stroke-dasharray:7,7;" fill="none" id="Dev-GMN38"/></g><!--link CustomerBuild to GMN41--><g class="link" data-entity-1="ent0005" data-entity-2="ent0042" id="lnk43" data-source-line="91" data-link-type="association"><path d="M587.192,417.007 C588.83,417.007 590.553,417.007 592.359,417.007 C595.97,417.007 599.912,417.007 604.172,417.007 C612.692,417.007 622.485,417.007 633.453,417.007 C677.326,417.007 740.001,417.007 815.212,417.007 C965.633,417.007 1166.194,417.007 1366.755,417.007 C1767.878,417.007 2169,417.007 2169,417.007 C2169,417.007 2169,457.557 2169,483.217" style="stroke:#4B5563;stroke-width:1;stroke-dasharray:7,7;" fill="none" id="CustomerBuild-GMN41"/></g><!--link AdminBuild to GMN44--><g class="link" data-entity-1="ent0009" data-entity-2="ent0045" id="lnk46" data-source-line="96" data-link-type="association"><path d="M1518.362,350.007 C1519.118,350.007 1519.892,350.007 1520.684,350.007 C1523.853,350.007 1527.311,350.007 1531.049,350.007 C1538.524,350.007 1547.116,350.007 1556.739,350.007 C1595.232,350.007 1650.223,350.007 1716.211,350.007 C1848.188,350.007 2024.156,350.007 2200.125,350.007 C2552.063,350.007 2904,350.007 2904,350.007 C2904,350.007 2904,431.617 2904,475.937" style="stroke:#4B5563;stroke-width:1;stroke-dasharray:7,7;" fill="none" id="AdminBuild-GMN44"/></g><!--link DeployPhase to Images--><g class="link" data-entity-1="ent0047" data-entity-2="ent0048" id="lnk50" data-source-line="104" data-link-type="dependency"><path d="M2682.38,543.667 C2682.38,562.387 2682.38,579.547 2682.38,597.797" style="stroke:#4B5563;stroke-width:1;stroke-dasharray:7,7;" fill="none" id="DeployPhase-to-Images"/><polygon points="2682.38,602.797,2686.38,593.797,2682.38,597.797,2678.38,593.797,2682.38,602.797" fill="#4B5563" style="stroke:#4B5563;stroke-width:1;stroke-linejoin:miter;stroke-miterlimit:10;"/><text x="2622.38" y="569.304" fill="#000" font-size="13" textLength="59.8">컨테이너화</text></g><!--link Images to AWS--><g class="link" data-entity-1="ent0048" data-entity-2="ent0049" id="lnk51" data-source-line="105" data-link-type="dependency"><path d="M2664,675.457 C2664,693.787 2664,711.057 2664,729.847" style="stroke:#4B5563;stroke-width:1;stroke-dasharray:7,7;" fill="none" id="Images-to-AWS"/><polygon points="2664,734.847,2668,725.847,2664,729.847,2660,725.847,2664,734.847" fill="#4B5563" style="stroke:#4B5563;stroke-width:1;stroke-linejoin:miter;stroke-miterlimit:10;"/><text x="2640" y="701.214" fill="#000" font-size="13" textLength="23.92">배포</text></g><!--link CustomerBuild to DeployPhase--><g class="link" data-entity-1="ent0005" data-entity-2="ent0047" id="lnk52" data-source-line="106" data-link-type="dependency"><path d="M576.67,556.494 C576.67,556.8 576.67,557.105 576.67,557.407 C576.67,558.012 576.67,558.609 576.67,559.197 C576.67,560.373 576.67,561.515 576.67,562.622 C576.67,567.047 576.67,570.898 576.67,574.066 C576.67,580.402 576.67,584.007 576.67,584.007 C576.67,584.007 2645.62,584.007 2645.62,584.007 C2645.62,584.007 2645.62,568.637 2645.62,548.427" style="stroke:#4B5563;stroke-width:1;stroke-dasharray:7,7;" fill="none" id="CustomerBuild-to-DeployPhase"/><polygon points="2645.62,543.427,2641.62,552.427,2645.62,548.427,2649.62,552.427,2645.62,543.427" fill="#4B5563" style="stroke:#4B5563;stroke-width:1;stroke-linejoin:miter;stroke-miterlimit:10;"/><text x="1484.88" y="580.074" fill="#000" font-size="13" textLength="23.92">배포</text></g><!--link AdminBuild to DeployPhase--><g class="link" data-entity-1="ent0009" data-entity-2="ent0047" id="lnk53" data-source-line="107" data-link-type="dependency"><path d="M1517.521,339.007 C1517.95,339.007 1518.394,339.007 1518.854,339.007 C1520.694,339.007 1522.781,339.007 1525.107,339.007 C1534.411,339.007 1547.536,339.007 1563.932,339.007 C1596.723,339.007 1642.595,339.007 1697.143,339.007 C1806.237,339.007 1950.031,339.007 2093.269,339.007 C2379.745,339.007 2664,339.007 2664,339.007 C2664,339.007 2664,410.127 2664,458.897" style="stroke:#4B5563;stroke-width:1;stroke-dasharray:7,7;" fill="none" id="AdminBuild-to-DeployPhase"/><polygon points="2664,463.897,2668,454.897,2664,458.897,2660,454.897,2664,463.897" fill="#4B5563" style="stroke:#4B5563;stroke-width:1;stroke-linejoin:miter;stroke-miterlimit:10;"/><text x="2125.05" y="335.074" fill="#000" font-size="13" textLength="23.92">배포</text></g><g class="legend" data-source-line="109"><rect x="2789.453" y="845.008" width="260.074" height="111.781" fill="none" style="stroke:#000;stroke-width:1;" rx="7.5" ry="7.5"/><text x="2794.453" y="865.003" fill="#000" font-size="14" textLength="25.76">색상</text><text x="2859.36" y="865.003" fill="#000" font-size="14" textLength="25.76">의미</text><rect x="2794.453" y="868.304" width="64.907" height="16.297" fill="#DBEAFE" style="stroke:none;"/><text x="2794.453" y="881.299" fill="#000" font-size="14"> </text><text x="2859.36" y="881.299" fill="#000" font-size="14" textLength="111.94">고객용 릴리즈 단위</text><rect x="2794.453" y="884.601" width="64.907" height="16.297" fill="#FCE7F3" style="stroke:none;"/><text x="2794.453" y="897.596" fill="#000" font-size="14"> </text><text x="2859.36" y="897.596" fill="#000" font-size="14" textLength="99.06">관리용 빌드 단위</text><rect x="2794.453" y="900.898" width="64.907" height="16.297" fill="#FEF3C7" style="stroke:none;"/><text x="2794.453" y="913.893" fill="#000" font-size="14"> </text><text x="2859.36" y="913.893" fill="#000" font-size="14" textLength="185.167">Phase 2 선택 기술 / 실제 배포</text><text x="2794.453" y="930.19" fill="#000" font-size="14" textLength="50.408">artifact</text><text x="2859.36" y="930.19" fill="#000" font-size="14" textLength="111.94">패키지·빌드 산출물</text><text x="2794.453" y="946.487" fill="#000" font-size="14" textLength="64.907">database</text><text x="2859.36" y="946.487" fill="#000" font-size="14" textLength="81.73">데이터 저장소</text><line x1="2794.453" y1="852.008" x2="3044.527" y2="852.008" style="stroke:#000;stroke-width:1;"/><line x1="2794.453" y1="868.304" x2="3044.527" y2="868.304" style="stroke:#000;stroke-width:1;"/><line x1="2794.453" y1="884.601" x2="3044.527" y2="884.601" style="stroke:#000;stroke-width:1;"/><line x1="2794.453" y1="900.898" x2="3044.527" y2="900.898" style="stroke:#000;stroke-width:1;"/><line x1="2794.453" y1="917.195" x2="3044.527" y2="917.195" style="stroke:#000;stroke-width:1;"/><line x1="2794.453" y1="933.492" x2="3044.527" y2="933.492" style="stroke:#000;stroke-width:1;"/><line x1="2794.453" y1="949.789" x2="3044.527" y2="949.789" style="stroke:#000;stroke-width:1;"/><line x1="2794.453" y1="852.008" x2="2794.453" y2="949.789" style="stroke:#000;stroke-width:1;"/><line x1="2859.36" y1="852.008" x2="2859.36" y2="949.789" style="stroke:#000;stroke-width:1;"/><line x1="3044.527" y1="852.008" x2="3044.527" y2="949.789" style="stroke:#000;stroke-width:1;"/></g><?plantuml-src XLVTRXD75BxVfpWoKczG23W5Dn6Av2HIYvIgAQ7jHLsXyUwilMKzinglWwowaW63GfAALYKbL0uoKWX1IbMNHYM8SDF7yOxVeMVsnvxTEEKYYZtd_vplV3Fs7T-bK9nQ_685BEgvl5cZp8S6S_mw46Q1HynRfEAm2fHvWrb4D8twBOTvH90Qb55O4UfyaRjSm3cRsBEshMdKgyJYjvMvJTmwrIIkmwZVz2XmuLUv9YWAmM_7_ZukNxvyPKOJBgFLMR8eLRhgDx4aGKsVi8ghXsJSel230R1mAk_BzWpcZH8kB2hYqu8vGwXrMl_gLK5TIkfqVXxEMMLAR9esJIdaCKjQdkI5M3M7AHNRf0Lx9kjZ9BRA-KAXCCc3LyKW-T05jMVCGjR5M6xD5WeNhnW_QkqWmdTiOlgJMq8jEfkjQzGItOr5V5B6C9FTcBPDJhkv-CdifN8UtHW-hr2_IWLQX-F93VhTeD-5uTETmUlt9RQYAe1BC0t3dOvyTfW3KeSbkXP66rMGam-svCOU33UEW_t34YEUDsroGU7VDw0-uv_hcCHtE8k45gyHXoLYXzc2r7tHCFs6e668LTuG9at582RtRgfAmnMvNQNK3LKNuYFCwhI-oMiUhsDzO_t5-4ZfOmVYil_k3VgxylTN4EmVOGroVns2jrl1hzqI6sx_8U_T0TdPaszt8DXguxSSw21JNXjrdzUeM6WuhfNfJYhp4bjKdPc66nIdDmtNQSN1sfluSP4pNt3NfI9LsFKe3hgCSeteudg3-KujwbOIF3v3pSm9NBWmd_K7St59MXUEsgfsrOMuTjdf3U_jdguzMGuCNbGVFrXsggBGvEnXOSiVz0R7RQ3CyhY3qwwu3PeQNk9XGaVWl6fnFFR4GswKwRX7-jTKWqB1k3qJD5DfX9fQcrG_jQPCVLjrB8koxv29sTGynBXB0oQhDBPFPcCxZBWtFS6_HsgzsN1AB7XqFzX_Zq6xmTiEhX-sRUjWU7TFlco3tEu4cpjXrLzToym53p3rDSUaiRmOYrHQCOj3RhLA1BLWqcw6acjA47eUCL1kXTVzYg2hNowNs7dmAckOAe_0F1QbB3uLnAl2qaA2j3c862UFwo3_wgYc3bvloTqZf1Q5kn6ZeilGTcbXX8BbvSy1-xFcMF42uS4O8laYhbgD-nJHWU5TNe6Fu6ig73jcfWWY-QBg0hPeD17XLAe-ZYGriBF6boXhFJACYCnI45CKEXTlcIxNo6airuqcB_AOlaOGEDCgmUnusSSsUlX9E9za4pPBwq-o9tFmsOqRAy2PsqnKKdkaoxEsK-aMecuzWcCCtBgHSlLXTLmY7rybQZh0xTHu08AV-WfXdJx8tY-3DoU0xb9u3P6sYb2cA_XSKk84joX4b2MdEW8LRI3cYXRnV2GYLVq8WWRI4gYCidafReWkMXWSz-LU6p7ml2lVuLVzNfPFVWus7iCIDszHCUZZkZzv46pkNJ0YPRdRrl87-V8ErWLoSs_usqFPFK4bFElWb-5sDpJBf5FcFav3vPF6l7P9Xi2CqqXnTvZDyoEiOBYz4p7H1Yg5OL8NWhAKxuw6Zmvb3xNUFqQ7mOiJm8FXzi5fupDprAWoUty5BxVIsQa0AQvEEf1bLvMTvtXZc8TrAL9T3rxrZUWYX9KclfsPtEs0W_w5__zPAnh28SXU5u9-7-jCdbVvBBCjXJy5Gg6XFRBU7GplAouCEkkW_lrvZD5AR3oMwV62PbrUgo6hr-CiYj-inYd4L_gPcQ2ceMKJaaBaIjrwMaB3fu-DMA1qL8IvE4Q6AvLOTpbIq-xCCtKCbrPKJ-FnXujZjEIzXrX4I-xkO4zQHkjg_BDWlZNnNRTv8BkTK2rw-QDQ1ZWfdV1fFzzABgOOFse_rtlgcj97YXR9m5eZxFpx9lOgx_RbFztWy0JLaZkmfRDFMpvxWM_fbi9DLEb_?></g></svg>