<svg xmlns="http://www.w3.org/2000/svg" xmlns:xlink="http://www.w3.org/1999/xlink" version="1.1" data-diagram-type="SEQUENCE" style="width:1755px;height:2192px;background:#FAF9FF;" width="1755px" height="2192px" viewBox="0 0 1755 2192" zoomAndPan="magnify" preserveAspectRatio="none" contentStyleType="text/css"><?plantuml 1.2026.7beta11?><defs/><g font-family="sans-serif" lengthAdjust="spacing"><rect x="0" y="0" width="1755" height="2192" fill="#FAF9FF" style="stroke:none;"/><g class="title" data-source-line="1"><text x="697.557" y="27.995" fill="#000" font-size="14" textLength="358.169" font-weight="700">A-COP A2A Remote Team delegation lifecycle</text></g><rect x="69.475" y="638.117" width="1192.435" height="143.664" fill="none" style="stroke:#000;stroke-width:1.5;"/><rect x="69.475" y="799.781" width="1490.954" height="423.664" fill="none" style="stroke:#000;stroke-width:1.5;"/><rect x="69.475" y="1673.102" width="1333.148" height="408.531" fill="none" style="stroke:#000;stroke-width:1.5;"/><g><title>.. .. Agent ...</title><rect x="81.975" y="123.594" width="8" height="1982.039" fill="#000" fill-opacity="0"/><line x1="85.475" y1="123.594" x2="85.475" y2="2105.633" style="stroke:#7C3AED;stroke-width:0.5;stroke-dasharray:5,5;"/></g><g><title>A-COP Agent Gateway</title><rect x="502.906" y="123.594" width="8" height="1982.039" fill="#000" fill-opacity="0"/><line x1="506.406" y1="123.594" x2="506.406" y2="2105.633" style="stroke:#7C3AED;stroke-width:0.5;stroke-dasharray:5,5;"/></g><g><title>TeamRegistry</title><rect x="763.758" y="123.594" width="8" height="1982.039" fill="#000" fill-opacity="0"/><line x1="767.258" y1="123.594" x2="767.258" y2="2105.633" style="stroke:#7C3AED;stroke-width:0.5;stroke-dasharray:5,5;"/></g><g><title>TeamExecutorPort</title><rect x="901.3" y="123.594" width="8" height="1982.039" fill="#000" fill-opacity="0"/><line x1="904.8" y1="123.594" x2="904.8" y2="2105.633" style="stroke:#7C3AED;stroke-width:0.5;stroke-dasharray:5,5;"/></g><g><title>A2A Remote Team</title><rect x="1242.41" y="123.594" width="8" height="1982.039" fill="#000" fill-opacity="0"/><line x1="1245.91" y1="123.594" x2="1245.91" y2="2105.633" style="stroke:#7C3AED;stroke-width:0.5;stroke-dasharray:5,5;"/></g><g><title>Controller</title><rect x="1383.123" y="123.594" width="8" height="1982.039" fill="#000" fill-opacity="0"/><line x1="1386.623" y1="123.594" x2="1386.623" y2="2105.633" style="stroke:#7C3AED;stroke-width:0.5;stroke-dasharray:5,5;"/></g><text x="10" y="120.292" fill="#000" font-size="14" textLength="144.95">외부 기업 Agent 플랫폼</text><ellipse cx="85.475" cy="55.797" rx="8" ry="8" fill="#E2E2F0" style="stroke:#181818;stroke-width:0.5;"/><path d="M85.475,63.797 L85.475,90.797 M72.475,71.797 L98.475,71.797 M85.475,90.797 L72.475,105.797 M85.475,90.797 L98.475,105.797" style="stroke:#181818;stroke-width:0.5;" fill="none"/><rect x="421.381" y="92.297" width="170.051" height="30.297" fill="#EDE9FE" style="stroke:#7C3AED;stroke-width:0.5;" rx="2.5" ry="2.5"/><text x="428.381" y="112.292" fill="#000" font-size="14" textLength="156.051">A-COP Agent Gateway</text><rect x="711.597" y="92.297" width="111.323" height="30.297" fill="#EDE9FE" style="stroke:#7C3AED;stroke-width:0.5;" rx="2.5" ry="2.5"/><text x="718.597" y="112.292" fill="#000" font-size="14" textLength="97.323">TeamRegistry</text><rect x="832.92" y="92.297" width="143.76" height="30.297" fill="#EDE9FE" style="stroke:#7C3AED;stroke-width:0.5;" rx="2.5" ry="2.5"/><text x="839.92" y="112.292" fill="#000" font-size="14" textLength="129.76">TeamExecutorPort</text><rect x="1156.783" y="76" width="178.254" height="46.594" fill="#EDE9FE" style="stroke:#7C3AED;stroke-width:0.5;" rx="2.5" ry="2.5"/><text x="1180.414" y="95.995" fill="#000" font-size="14" textLength="130.99">A2A Remote Team</text><text x="1163.783" y="112.292" fill="#000" font-size="14" textLength="164.254">(Catalog &amp; Verification)</text><rect x="1345.037" y="92.297" width="83.173" height="30.297" fill="#EDE9FE" style="stroke:#7C3AED;stroke-width:0.5;" rx="2.5" ry="2.5"/><text x="1352.037" y="112.292" fill="#000" font-size="14" textLength="69.173">Controller</text><text x="10" y="2118.628" fill="#000" font-size="14" textLength="144.95">외부 기업 Agent 플랫폼</text><ellipse cx="85.475" cy="2130.43" rx="8" ry="8" fill="#E2E2F0" style="stroke:#181818;stroke-width:0.5;"/><path d="M85.475,2138.43 L85.475,2165.43 M72.475,2146.43 L98.475,2146.43 M85.475,2165.43 L72.475,2180.43 M85.475,2165.43 L98.475,2180.43" style="stroke:#181818;stroke-width:0.5;" fill="none"/><rect x="421.381" y="2105.633" width="170.051" height="30.297" fill="#EDE9FE" style="stroke:#7C3AED;stroke-width:0.5;" rx="2.5" ry="2.5"/><text x="428.381" y="2125.628" fill="#000" font-size="14" textLength="156.051">A-COP Agent Gateway</text><rect x="711.597" y="2105.633" width="111.323" height="30.297" fill="#EDE9FE" style="stroke:#7C3AED;stroke-width:0.5;" rx="2.5" ry="2.5"/><text x="718.597" y="2125.628" fill="#000" font-size="14" textLength="97.323">TeamRegistry</text><rect x="832.92" y="2105.633" width="143.76" height="30.297" fill="#EDE9FE" style="stroke:#7C3AED;stroke-width:0.5;" rx="2.5" ry="2.5"/><text x="839.92" y="2125.628" fill="#000" font-size="14" textLength="129.76">TeamExecutorPort</text><rect x="1156.783" y="2105.633" width="178.254" height="46.594" fill="#EDE9FE" style="stroke:#7C3AED;stroke-width:0.5;" rx="2.5" ry="2.5"/><text x="1180.414" y="2125.628" fill="#000" font-size="14" textLength="130.99">A2A Remote Team</text><text x="1163.783" y="2141.925" fill="#000" font-size="14" textLength="164.254">(Catalog &amp; Verification)</text><rect x="1345.037" y="2105.633" width="83.173" height="30.297" fill="#EDE9FE" style="stroke:#7C3AED;stroke-width:0.5;" rx="2.5" ry="2.5"/><text x="1352.037" y="2125.628" fill="#000" font-size="14" textLength="69.173">Controller</text><path d="M10.225,136.594 L10.225,176.594 L581.225,176.594 L581.225,146.594 L571.225,136.594 L10.225,136.594" style="stroke:#181818;stroke-width:0.5;" fill="#FEFFDD"/><path d="M571.225,136.594 L571.225,146.594 L581.225,146.594 L571.225,136.594" style="stroke:#181818;stroke-width:0.5;" fill="#FEFFDD"/><text x="86.789" y="153.661" fill="#000" font-size="13" textLength="299.499">외부 기업 Agent 플랫폼이 A-COP에 업무를 위임한다.</text><text x="86.789" y="168.793" fill="#000" font-size="13" textLength="409.303">개인 AI의 MCP 도구 호출이나 일반 Case 흐름은 이 그림의 범위가 아니다.</text><polygon points="494.406,198.992,504.406,202.992,494.406,206.992,498.406,202.992" fill="#4B5563" style="stroke:#4B5563;stroke-width:1;stroke-linejoin:miter;stroke-miterlimit:10;"/><line x1="85.475" y1="202.992" x2="500.406" y2="202.992" style="stroke:#4B5563;stroke-width:1;"/><text x="92.475" y="197.926" fill="#000" font-size="13" textLength="101.304">Agent Card 조회</text><polygon points="96.475,243.258,86.475,247.258,96.475,251.258,92.475,247.258" fill="#4B5563" style="stroke:#4B5563;stroke-width:1;stroke-linejoin:miter;stroke-miterlimit:10;"/><line x1="90.475" y1="247.258" x2="505.406" y2="247.258" style="stroke:#4B5563;stroke-width:1;stroke-dasharray:2,2;"/><text x="102.475" y="227.059" fill="#000" font-size="13" textLength="73.252">Agent Card</text><text x="102.475" y="242.192" fill="#000" font-size="13" textLength="249.837">capability / schema / auth / task mode</text><polygon points="494.406,287.523,504.406,291.523,494.406,295.523,498.406,291.523" fill="#4B5563" style="stroke:#4B5563;stroke-width:1;stroke-linejoin:miter;stroke-miterlimit:10;"/><line x1="85.475" y1="291.523" x2="500.406" y2="291.523" style="stroke:#4B5563;stroke-width:1;"/><text x="92.475" y="271.325" fill="#000" font-size="13" textLength="88.45">A2A Task 생성</text><text x="92.475" y="286.458" fill="#000" font-size="13" textLength="396.932">case_id, capability=sku_verify, deadline_s, idempotency_key</text><line x1="506.406" y1="320.656" x2="548.406" y2="320.656" style="stroke:#4B5563;stroke-width:1;"/><line x1="548.406" y1="320.656" x2="548.406" y2="333.656" style="stroke:#4B5563;stroke-width:1;"/><line x1="507.406" y1="333.656" x2="548.406" y2="333.656" style="stroke:#4B5563;stroke-width:1;"/><polygon points="517.406,329.656,507.406,333.656,517.406,337.656,513.406,333.656" fill="#4B5563" style="stroke:#4B5563;stroke-width:1;stroke-linejoin:miter;stroke-miterlimit:10;"/><text x="513.406" y="315.59" fill="#000" font-size="13" textLength="246.852">scope·audience·인증·idempotency 검증</text><polygon points="1374.623,358.789,1384.623,362.789,1374.623,366.789,1378.623,362.789" fill="#4B5563" style="stroke:#4B5563;stroke-width:1;stroke-linejoin:miter;stroke-miterlimit:10;"/><line x1="506.406" y1="362.789" x2="1380.623" y2="362.789" style="stroke:#4B5563;stroke-width:1;"/><text x="513.406" y="357.723" fill="#000" font-size="13" textLength="114.366">외부 위임 Task 전달</text><polygon points="778.258,387.922,768.258,391.922,778.258,395.922,774.258,391.922" fill="#4B5563" style="stroke:#4B5563;stroke-width:1;stroke-linejoin:miter;stroke-miterlimit:10;"/><line x1="772.258" y1="391.922" x2="1385.623" y2="391.922" style="stroke:#4B5563;stroke-width:1;"/><text x="784.258" y="386.856" fill="#000" font-size="13" textLength="114.715">capability resolve</text><polygon points="1374.623,432.188,1384.623,436.188,1374.623,440.188,1378.623,436.188" fill="#4B5563" style="stroke:#4B5563;stroke-width:1;stroke-linejoin:miter;stroke-miterlimit:10;"/><line x1="767.258" y1="436.188" x2="1380.623" y2="436.188" style="stroke:#4B5563;stroke-width:1;stroke-dasharray:2,2;"/><text x="774.258" y="415.989" fill="#000" font-size="13" textLength="136.468">execution_type=A2A</text><text x="774.258" y="431.122" fill="#000" font-size="13" textLength="197.45">agent_card_url / a2a_endpoint</text><polygon points="915.8,461.32,905.8,465.32,915.8,469.32,911.8,465.32" fill="#4B5563" style="stroke:#4B5563;stroke-width:1;stroke-linejoin:miter;stroke-miterlimit:10;"/><line x1="909.8" y1="465.32" x2="1385.623" y2="465.32" style="stroke:#4B5563;stroke-width:1;"/><text x="921.8" y="460.254" fill="#000" font-size="13" textLength="129.092">execute(TeamTask)</text><polygon points="1233.91,490.453,1243.91,494.453,1233.91,498.453,1237.91,494.453" fill="#4B5563" style="stroke:#4B5563;stroke-width:1;stroke-linejoin:miter;stroke-miterlimit:10;"/><line x1="904.8" y1="494.453" x2="1239.91" y2="494.453" style="stroke:#4B5563;stroke-width:1;"/><text x="911.8" y="489.387" fill="#000" font-size="13" textLength="58.261">Task 요청</text><polygon points="915.8,519.586,905.8,523.586,915.8,527.586,911.8,523.586" fill="#4B5563" style="stroke:#4B5563;stroke-width:1;stroke-linejoin:miter;stroke-miterlimit:10;"/><line x1="909.8" y1="523.586" x2="1244.91" y2="523.586" style="stroke:#4B5563;stroke-width:1;stroke-dasharray:2,2;"/><text x="921.8" y="518.52" fill="#000" font-size="13" textLength="102.4">status=working</text><polygon points="1374.623,563.852,1384.623,567.852,1374.623,571.852,1378.623,567.852" fill="#4B5563" style="stroke:#4B5563;stroke-width:1;stroke-linejoin:miter;stroke-miterlimit:10;"/><line x1="904.8" y1="567.852" x2="1380.623" y2="567.852" style="stroke:#4B5563;stroke-width:1;stroke-dasharray:2,2;"/><text x="911.8" y="547.653" fill="#000" font-size="13" textLength="202.82">TeamResult(outcome=waiting)</text><text x="911.8" y="562.786" fill="#000" font-size="13" textLength="111.522">원격 task 추적 시작</text><polygon points="517.406,592.984,507.406,596.984,517.406,600.984,513.406,596.984" fill="#4B5563" style="stroke:#4B5563;stroke-width:1;stroke-linejoin:miter;stroke-miterlimit:10;"/><line x1="511.406" y1="596.984" x2="1385.623" y2="596.984" style="stroke:#4B5563;stroke-width:1;"/><text x="523.406" y="591.918" fill="#000" font-size="13" textLength="114.165">Case running 반영</text><polygon points="96.475,622.117,86.475,626.117,96.475,630.117,92.475,626.117" fill="#4B5563" style="stroke:#4B5563;stroke-width:1;stroke-linejoin:miter;stroke-miterlimit:10;"/><line x1="90.475" y1="626.117" x2="505.406" y2="626.117" style="stroke:#4B5563;stroke-width:1;stroke-dasharray:2,2;"/><text x="102.475" y="621.051" fill="#000" font-size="13" textLength="160.773">task_id / status=working</text><path d="M69.475,638.117 L146.099,638.117 L146.099,645.25 L136.099,655.25 L69.475,655.25 L69.475,638.117" style="stroke:#000;stroke-width:1.5;" fill="#EEE"/><rect x="69.475" y="638.117" width="1192.435" height="143.664" fill="none" style="stroke:#000;stroke-width:1.5;"/><text x="84.475" y="651.184" fill="#000" font-size="13" textLength="31.624" font-weight="700">loop</text><text x="161.099" y="650.328" fill="#000" font-size="11" textLength="102.503" font-weight="700">[상태 폴링 또는 콜백]</text><polygon points="494.406,682.383,504.406,686.383,494.406,690.383,498.406,686.383" fill="#4B5563" style="stroke:#4B5563;stroke-width:1;stroke-linejoin:miter;stroke-miterlimit:10;"/><line x1="85.475" y1="686.383" x2="500.406" y2="686.383" style="stroke:#4B5563;stroke-width:1;"/><text x="92.475" y="681.317" fill="#000" font-size="13" textLength="171.729">Task 상태 조회 또는 callback</text><polygon points="1233.91,711.516,1243.91,715.516,1233.91,719.516,1237.91,715.516" fill="#4B5563" style="stroke:#4B5563;stroke-width:1;stroke-linejoin:miter;stroke-miterlimit:10;"/><line x1="506.406" y1="715.516" x2="1239.91" y2="715.516" style="stroke:#4B5563;stroke-width:1;"/><text x="513.406" y="710.45" fill="#000" font-size="13" textLength="80.025">원격 상태 조회</text><polygon points="517.406,740.648,507.406,744.648,517.406,748.648,513.406,744.648" fill="#4B5563" style="stroke:#4B5563;stroke-width:1;stroke-linejoin:miter;stroke-miterlimit:10;"/><line x1="511.406" y1="744.648" x2="1244.91" y2="744.648" style="stroke:#4B5563;stroke-width:1;stroke-dasharray:2,2;"/><text x="523.406" y="739.583" fill="#000" font-size="13" textLength="120.897">working / progress</text><polygon points="96.475,769.781,86.475,773.781,96.475,777.781,92.475,773.781" fill="#4B5563" style="stroke:#4B5563;stroke-width:1;stroke-linejoin:miter;stroke-miterlimit:10;"/><line x1="90.475" y1="773.781" x2="505.406" y2="773.781" style="stroke:#4B5563;stroke-width:1;stroke-dasharray:2,2;"/><text x="102.475" y="768.715" fill="#000" font-size="13" textLength="84.743">상태·progress</text><path d="M69.475,799.781 L133.918,799.781 L133.918,806.914 L123.918,816.914 L69.475,816.914 L69.475,799.781" style="stroke:#000;stroke-width:1.5;" fill="#EEE"/><rect x="69.475" y="799.781" width="1490.954" height="423.664" fill="none" style="stroke:#000;stroke-width:1.5;"/><text x="84.475" y="812.848" fill="#000" font-size="13" textLength="19.443" font-weight="700">alt</text><text x="148.918" y="811.992" fill="#000" font-size="11" textLength="182.568" font-weight="700">[추가 입력 필요 (input-required)]</text><polygon points="915.8,844.047,905.8,848.047,915.8,852.047,911.8,848.047" fill="#4B5563" style="stroke:#4B5563;stroke-width:1;stroke-linejoin:miter;stroke-miterlimit:10;"/><line x1="909.8" y1="848.047" x2="1244.91" y2="848.047" style="stroke:#4B5563;stroke-width:1;stroke-dasharray:2,2;"/><text x="921.8" y="842.981" fill="#000" font-size="13" textLength="202.89">required package_unit / reason</text><polygon points="1374.623,873.18,1384.623,877.18,1374.623,881.18,1378.623,877.18" fill="#4B5563" style="stroke:#4B5563;stroke-width:1;stroke-linejoin:miter;stroke-miterlimit:10;"/><line x1="904.8" y1="877.18" x2="1380.623" y2="877.18" style="stroke:#4B5563;stroke-width:1;"/><text x="911.8" y="872.114" fill="#000" font-size="13" textLength="168.686">need_more_context 정규화</text><line x1="1386.623" y1="906.313" x2="1428.623" y2="906.313" style="stroke:#4B5563;stroke-width:1;"/><line x1="1428.623" y1="906.313" x2="1428.623" y2="919.313" style="stroke:#4B5563;stroke-width:1;"/><line x1="1387.623" y1="919.313" x2="1428.623" y2="919.313" style="stroke:#4B5563;stroke-width:1;"/><polygon points="1397.623,915.313,1387.623,919.313,1397.623,923.313,1393.623,919.313" fill="#4B5563" style="stroke:#4B5563;stroke-width:1;stroke-linejoin:miter;stroke-miterlimit:10;"/><text x="1393.623" y="901.247" fill="#000" font-size="13" textLength="143.806">Case waiting_external</text><polygon points="517.406,944.445,507.406,948.445,517.406,952.445,513.406,948.445" fill="#4B5563" style="stroke:#4B5563;stroke-width:1;stroke-linejoin:miter;stroke-miterlimit:10;"/><line x1="511.406" y1="948.445" x2="1385.623" y2="948.445" style="stroke:#4B5563;stroke-width:1;stroke-dasharray:2,2;"/><text x="523.406" y="943.379" fill="#000" font-size="13" textLength="126.53">질문 / resume token</text><polygon points="96.475,973.578,86.475,977.578,96.475,981.578,92.475,977.578" fill="#4B5563" style="stroke:#4B5563;stroke-width:1;stroke-linejoin:miter;stroke-miterlimit:10;"/><line x1="90.475" y1="977.578" x2="505.406" y2="977.578" style="stroke:#4B5563;stroke-width:1;stroke-dasharray:2,2;"/><text x="102.475" y="972.512" fill="#000" font-size="13" textLength="80.025">추가 입력 요청</text><polygon points="494.406,1002.711,504.406,1006.711,494.406,1010.711,498.406,1006.711" fill="#4B5563" style="stroke:#4B5563;stroke-width:1;stroke-linejoin:miter;stroke-miterlimit:10;"/><line x1="85.475" y1="1006.711" x2="500.406" y2="1006.711" style="stroke:#4B5563;stroke-width:1;"/><text x="92.475" y="1001.645" fill="#000" font-size="13" textLength="51.972">추가 입력</text><polygon points="892.8,1031.844,902.8,1035.844,892.8,1039.844,896.8,1035.844" fill="#4B5563" style="stroke:#4B5563;stroke-width:1;stroke-linejoin:miter;stroke-miterlimit:10;"/><line x1="506.406" y1="1035.844" x2="898.8" y2="1035.844" style="stroke:#4B5563;stroke-width:1;"/><text x="513.406" y="1030.778" fill="#000" font-size="13" textLength="146.593">resume(task_id, input)</text><polygon points="1233.91,1060.977,1243.91,1064.977,1233.91,1068.977,1237.91,1064.977" fill="#4B5563" style="stroke:#4B5563;stroke-width:1;stroke-linejoin:miter;stroke-miterlimit:10;"/><line x1="904.8" y1="1064.977" x2="1239.91" y2="1064.977" style="stroke:#4B5563;stroke-width:1;"/><text x="911.8" y="1059.911" fill="#000" font-size="13" textLength="113.547">A2A Task resume</text><polygon points="915.8,1090.109,905.8,1094.109,915.8,1098.109,911.8,1094.109" fill="#4B5563" style="stroke:#4B5563;stroke-width:1;stroke-linejoin:miter;stroke-miterlimit:10;"/><line x1="909.8" y1="1094.109" x2="1244.91" y2="1094.109" style="stroke:#4B5563;stroke-width:1;stroke-dasharray:2,2;"/><text x="921.8" y="1089.043" fill="#000" font-size="13" textLength="102.4">status=working</text><polygon points="1374.623,1119.242,1384.623,1123.242,1374.623,1127.242,1378.623,1123.242" fill="#4B5563" style="stroke:#4B5563;stroke-width:1;stroke-linejoin:miter;stroke-miterlimit:10;"/><line x1="904.8" y1="1123.242" x2="1380.623" y2="1123.242" style="stroke:#4B5563;stroke-width:1;stroke-dasharray:2,2;"/><text x="911.8" y="1118.176" fill="#000" font-size="13" textLength="114.165">Case running 재개</text><line x1="69.475" y1="1132.242" x2="1560.429" y2="1132.242" style="stroke:#000;stroke-width:1;stroke-dasharray:2,2;"/><text x="74.475" y="1144.453" fill="#000" font-size="11" textLength="30.295" font-weight="700">[완료]</text><polygon points="915.8,1182.313,905.8,1186.313,915.8,1190.313,911.8,1186.313" fill="#4B5563" style="stroke:#4B5563;stroke-width:1;stroke-linejoin:miter;stroke-miterlimit:10;"/><line x1="909.8" y1="1186.313" x2="1244.91" y2="1186.313" style="stroke:#4B5563;stroke-width:1;stroke-dasharray:2,2;"/><text x="921.8" y="1166.114" fill="#000" font-size="13" textLength="119.812">status=completed</text><text x="921.8" y="1181.247" fill="#000" font-size="13" textLength="317.11">Artifact: verification_report + evidence_manifest</text><polygon points="1374.623,1211.445,1384.623,1215.445,1374.623,1219.445,1378.623,1215.445" fill="#4B5563" style="stroke:#4B5563;stroke-width:1;stroke-linejoin:miter;stroke-miterlimit:10;"/><line x1="904.8" y1="1215.445" x2="1380.623" y2="1215.445" style="stroke:#4B5563;stroke-width:1;"/><text x="911.8" y="1210.379" fill="#000" font-size="13" textLength="103.839">Artifact 근거 대조</text><line x1="904.8" y1="1258.578" x2="946.8" y2="1258.578" style="stroke:#4B5563;stroke-width:1;"/><line x1="946.8" y1="1258.578" x2="946.8" y2="1271.578" style="stroke:#4B5563;stroke-width:1;"/><line x1="905.8" y1="1271.578" x2="946.8" y2="1271.578" style="stroke:#4B5563;stroke-width:1;"/><polygon points="915.8,1267.578,905.8,1271.578,915.8,1275.578,911.8,1271.578" fill="#4B5563" style="stroke:#4B5563;stroke-width:1;stroke-linejoin:miter;stroke-miterlimit:10;"/><text x="911.8" y="1253.512" fill="#000" font-size="13" textLength="321.446">A2A Adapter 결과를 canonical TeamResult로 정규화</text><path d="M909.8,1284.578 L909.8,1339.578 L1217.8,1339.578 L1217.8,1294.578 L1207.8,1284.578 L909.8,1284.578" style="stroke:#181818;stroke-width:0.5;" fill="#FEFFDD"/><path d="M1207.8,1284.578 L1207.8,1294.578 L1217.8,1294.578 L1207.8,1284.578" style="stroke:#181818;stroke-width:0.5;" fill="#FEFFDD"/><text x="915.8" y="1301.645" fill="#000" font-size="13" textLength="287.349">LOCAL 실행도 동일한 TeamExecutorPort 뒤에서</text><text x="915.8" y="1316.778" fill="#000" font-size="13" textLength="223.361">canonical TeamResult로 정규화된다.</text><text x="915.8" y="1331.911" fill="#000" font-size="13" textLength="265.659">Controller는 LOCAL/A2A 차이를 보지 않는다.</text><polygon points="1374.623,1377.242,1384.623,1381.242,1374.623,1385.242,1378.623,1381.242" fill="#4B5563" style="stroke:#4B5563;stroke-width:1;stroke-linejoin:miter;stroke-miterlimit:10;"/><line x1="904.8" y1="1381.242" x2="1380.623" y2="1381.242" style="stroke:#4B5563;stroke-width:1;stroke-dasharray:2,2;"/><text x="911.8" y="1361.043" fill="#000" font-size="13" textLength="224.383">TeamResult(outcome=completed)</text><text x="911.8" y="1376.176" fill="#000" font-size="13" textLength="163.433">Artifact digest / evidence</text><polygon points="517.406,1406.375,507.406,1410.375,517.406,1414.375,513.406,1410.375" fill="#4B5563" style="stroke:#4B5563;stroke-width:1;stroke-linejoin:miter;stroke-miterlimit:10;"/><line x1="511.406" y1="1410.375" x2="1385.623" y2="1410.375" style="stroke:#4B5563;stroke-width:1;"/><text x="523.406" y="1405.309" fill="#000" font-size="13" textLength="175.728">Case resolved 또는 후속 판단</text><polygon points="96.475,1435.508,86.475,1439.508,96.475,1443.508,92.475,1439.508" fill="#4B5563" style="stroke:#4B5563;stroke-width:1;stroke-linejoin:miter;stroke-miterlimit:10;"/><line x1="90.475" y1="1439.508" x2="505.406" y2="1439.508" style="stroke:#4B5563;stroke-width:1;stroke-dasharray:2,2;"/><text x="102.475" y="1434.442" fill="#000" font-size="13" textLength="172.265">TeamResult + Artifact 반환</text><path d="M424.33,1452.508 L424.33,1537.508 L1327.33,1537.508 L1327.33,1462.508 L1317.33,1452.508 L424.33,1452.508" style="stroke:#181818;stroke-width:0.5;" fill="#FEFFDD"/><path d="M1317.33,1452.508 L1317.33,1462.508 L1327.33,1462.508 L1317.33,1452.508" style="stroke:#181818;stroke-width:0.5;" fill="#FEFFDD"/><text x="728.557" y="1469.575" fill="#000" font-size="13" textLength="84.405">보안 원칙 적용:</text><text x="728.557" y="1484.708" fill="#000" font-size="13" textLength="213.918">scope와 audience·만료·발급자 검증,</text><text x="728.557" y="1499.84" fill="#000" font-size="13" textLength="286.202">case_id + idempotency key로 중복 Task 방지,</text><text x="728.557" y="1514.973" fill="#000" font-size="13" textLength="219.623">Task·상태·Artifact·실패를 audit 기록.</text><text x="728.557" y="1530.106" fill="#000" font-size="13" textLength="200.998">token 원문은 로그에 남기지 않는다.</text><path d="M1391.623,1548.172 L1391.623,1663.172 L1738.623,1663.172 L1738.623,1558.172 L1728.623,1548.172 L1391.623,1548.172" style="stroke:#181818;stroke-width:0.5;" fill="#FEFFDD"/><path d="M1728.623,1548.172 L1728.623,1558.172 L1738.623,1558.172 L1728.623,1548.172" style="stroke:#181818;stroke-width:0.5;" fill="#FEFFDD"/><text x="1397.623" y="1565.239" fill="#000" font-size="13" textLength="212.34">A2A Task ↔ A-COP Case 상태 매핑</text><text x="1397.623" y="1580.372" fill="#000" font-size="13" textLength="120.885">working → running</text><text x="1397.623" y="1595.504" fill="#000" font-size="13" textLength="199.678">input-required → waiting_input</text><text x="1397.623" y="1610.637" fill="#000" font-size="13" textLength="227.912">completed → resolved 또는 후속 판단</text><text x="1397.623" y="1625.77" fill="#000" font-size="13" textLength="117.984">failed → escalated</text><text x="1397.623" y="1640.903" fill="#000" font-size="13" textLength="143.102">cancelled → cancelled</text><text x="1397.623" y="1656.036" fill="#000" font-size="13" textLength="326.661">timeout / 조회 불명 → escalated + remote unknown</text><path d="M69.475,1673.102 L133.918,1673.102 L133.918,1680.234 L123.918,1690.234 L69.475,1690.234 L69.475,1673.102" style="stroke:#000;stroke-width:1.5;" fill="#EEE"/><rect x="69.475" y="1673.102" width="1333.148" height="408.531" fill="none" style="stroke:#000;stroke-width:1.5;"/><text x="84.475" y="1686.168" fill="#000" font-size="13" textLength="19.443" font-weight="700">alt</text><text x="148.918" y="1685.312" fill="#000" font-size="11" textLength="131.559" font-weight="700">[실패·timeout·인증 실패]</text><polygon points="915.8,1717.367,905.8,1721.367,915.8,1725.367,911.8,1721.367" fill="#4B5563" style="stroke:#4B5563;stroke-width:1;stroke-linejoin:miter;stroke-miterlimit:10;"/><line x1="909.8" y1="1721.367" x2="1244.91" y2="1721.367" style="stroke:#4B5563;stroke-width:1;stroke-dasharray:2,2;"/><text x="921.8" y="1716.301" fill="#000" font-size="13" textLength="174.63">5xx / timeout / auth failure</text><line x1="904.8" y1="1750.5" x2="946.8" y2="1750.5" style="stroke:#4B5563;stroke-width:1;"/><line x1="946.8" y1="1750.5" x2="946.8" y2="1763.5" style="stroke:#4B5563;stroke-width:1;"/><line x1="905.8" y1="1763.5" x2="946.8" y2="1763.5" style="stroke:#4B5563;stroke-width:1;"/><polygon points="915.8,1759.5,905.8,1763.5,915.8,1767.5,911.8,1763.5" fill="#4B5563" style="stroke:#4B5563;stroke-width:1;stroke-linejoin:miter;stroke-miterlimit:10;"/><text x="911.8" y="1745.434" fill="#000" font-size="13" textLength="180.099">제한적 재시도 후 deadline 판정</text><polygon points="1374.623,1788.633,1384.623,1792.633,1374.623,1796.633,1378.623,1792.633" fill="#4B5563" style="stroke:#4B5563;stroke-width:1;stroke-linejoin:miter;stroke-miterlimit:10;"/><line x1="904.8" y1="1792.633" x2="1380.623" y2="1792.633" style="stroke:#4B5563;stroke-width:1;stroke-dasharray:2,2;"/><text x="911.8" y="1787.567" fill="#000" font-size="13" textLength="178.204">remote outcome=unknown</text><polygon points="517.406,1817.766,507.406,1821.766,517.406,1825.766,513.406,1821.766" fill="#4B5563" style="stroke:#4B5563;stroke-width:1;stroke-linejoin:miter;stroke-miterlimit:10;"/><line x1="511.406" y1="1821.766" x2="1385.623" y2="1821.766" style="stroke:#4B5563;stroke-width:1;"/><text x="523.406" y="1816.7" fill="#000" font-size="13" textLength="98.757">Case escalated</text><polygon points="96.475,1846.898,86.475,1850.898,96.475,1854.898,92.475,1850.898" fill="#4B5563" style="stroke:#4B5563;stroke-width:1;stroke-linejoin:miter;stroke-miterlimit:10;"/><line x1="90.475" y1="1850.898" x2="505.406" y2="1850.898" style="stroke:#4B5563;stroke-width:1;stroke-dasharray:2,2;"/><text x="102.475" y="1845.833" fill="#000" font-size="13" textLength="193.089">오류 근거·task_id·unknown 반환</text><line x1="69.475" y1="1859.898" x2="1402.623" y2="1859.898" style="stroke:#000;stroke-width:1;stroke-dasharray:2,2;"/><text x="74.475" y="1872.109" fill="#000" font-size="11" textLength="30.295" font-weight="700">[취소]</text><polygon points="494.406,1894.836,504.406,1898.836,494.406,1902.836,498.406,1898.836" fill="#4B5563" style="stroke:#4B5563;stroke-width:1;stroke-linejoin:miter;stroke-miterlimit:10;"/><line x1="85.475" y1="1898.836" x2="500.406" y2="1898.836" style="stroke:#4B5563;stroke-width:1;"/><text x="92.475" y="1893.77" fill="#000" font-size="13" textLength="51.972">취소 요청</text><polygon points="892.8,1923.969,902.8,1927.969,892.8,1931.969,896.8,1927.969" fill="#4B5563" style="stroke:#4B5563;stroke-width:1;stroke-linejoin:miter;stroke-miterlimit:10;"/><line x1="506.406" y1="1927.969" x2="898.8" y2="1927.969" style="stroke:#4B5563;stroke-width:1;"/><text x="513.406" y="1922.903" fill="#000" font-size="13" textLength="97.982">cancel(task_id)</text><polygon points="1233.91,1953.102,1243.91,1957.102,1233.91,1961.102,1237.91,1957.102" fill="#4B5563" style="stroke:#4B5563;stroke-width:1;stroke-linejoin:miter;stroke-miterlimit:10;"/><line x1="904.8" y1="1957.102" x2="1239.91" y2="1957.102" style="stroke:#4B5563;stroke-width:1;"/><text x="911.8" y="1952.036" fill="#000" font-size="13" textLength="72.3">A2A cancel</text><polygon points="915.8,1982.234,905.8,1986.234,915.8,1990.234,911.8,1986.234" fill="#4B5563" style="stroke:#4B5563;stroke-width:1;stroke-linejoin:miter;stroke-miterlimit:10;"/><line x1="909.8" y1="1986.234" x2="1244.91" y2="1986.234" style="stroke:#4B5563;stroke-width:1;stroke-dasharray:2,2;"/><text x="921.8" y="1981.168" fill="#000" font-size="13" textLength="90.025">cancelled 확인</text><polygon points="1374.623,2011.367,1384.623,2015.367,1374.623,2019.367,1378.623,2015.367" fill="#4B5563" style="stroke:#4B5563;stroke-width:1;stroke-linejoin:miter;stroke-miterlimit:10;"/><line x1="904.8" y1="2015.367" x2="1380.623" y2="2015.367" style="stroke:#4B5563;stroke-width:1;stroke-dasharray:2,2;"/><text x="911.8" y="2010.301" fill="#000" font-size="13" textLength="217.382">TeamResult(outcome=cancelled)</text><polygon points="517.406,2040.5,507.406,2044.5,517.406,2048.5,513.406,2044.5" fill="#4B5563" style="stroke:#4B5563;stroke-width:1;stroke-linejoin:miter;stroke-miterlimit:10;"/><line x1="511.406" y1="2044.5" x2="1385.623" y2="2044.5" style="stroke:#4B5563;stroke-width:1;"/><text x="523.406" y="2039.434" fill="#000" font-size="13" textLength="97.919">Case cancelled</text><polygon points="96.475,2069.633,86.475,2073.633,96.475,2077.633,92.475,2073.633" fill="#4B5563" style="stroke:#4B5563;stroke-width:1;stroke-linejoin:miter;stroke-miterlimit:10;"/><line x1="90.475" y1="2073.633" x2="505.406" y2="2073.633" style="stroke:#4B5563;stroke-width:1;stroke-dasharray:2,2;"/><text x="102.475" y="2068.567" fill="#000" font-size="13" textLength="80.025">취소 결과 반환</text><?plantuml-src ZLPTQnj757tVNt59eTZKJY2fMs9mGHMb55nYGkYJGKnsH_BYrQowE-iFIi5E5EF4Ad62tSY9P1pgn4xhWk8ubWlkYtzA7ZMp_w5tTcUbNKLo-YJjpFsQU-wSCzpc3eNSUFxM3EIkv-0sBRkSmXrAoc1HXvO8jrq6ZbsavhBfKCEVjrc5UBXzbvZp9SyDc9Lt7TU3pugaUBDOJ5duSyHo5srMWY9n_BIlJtyEA3Cf_680J6FmQPlHRrtFefuEzhLvWr0hlVjHkedY3Km7C4CyRfjsXJ0-E4JQe3yAjUZD8aMZdEUvYthnoxiJ4r_TC7ur369oNBWYTyx4wGfqpbhosGF8bIZZ46xLnEvVuUFpAq1yo3isBXgLNYguejiQMNzFE5qaov6j_fyrLYs_JKkspxtOAldusEox9Me6MDUCw_78LFtfIvt5SfQDv0adZbk2p-4dwjb5suoG7TMfb6KsGjvbt7CTXthn-RgVXi5KM7U1UlhKOyc1BcsJR9x4WoQVRGBkYwCJyUeSPACgTwlXTaDix5yrEgs6R9v1xWVPhCEF-HaGZwkTzqSGri_aAMwTY7jraCrpqQf3dlWKmkQcU5sLpHLGyJljC_7wNFcAuosCt6dX-dPLRAn7qIcpG1Ll677XCFvD0iQaBZTFF0laorRul6ReBHX7izWXRJNBJ58XTst7vijm3NnpZfO9_Y41dyCVJlnvABiM7PWBuRcZ3EJzfgo-LQ5yMh2jCUZ5dFBdWyA2mcfv3EyYiHoy1GL_36oBbYju2cOk5-RfSg_CL0BVT2lqeaq2orRtxAADNPMlcnVjb3DqZbTmBUtVGtaID9WnFhhQFMpbaT6pKZx9d4wcQWUF-gwpG8raC-vXAZgDPXWdiC2NAtGA6pBBYEfjmSJU5WBFKQsyJWg8MSMryMfbiwgHJwBG4JNZgi9HGwt7LQcHdjHrFz-IntyR-aACTzrzJdZWJosw7Z9JIVls5HhVIpzm-8WRSDCjqwb5OdEq7vrbyiLcv_XDZBKytP9xgo0t6dBtIL-rNLoYcVK2nXGhuX3B-kh0CLCHSHxKN6LhD1pNhU3Oh8Rt6n0-FX47go3gc-BH5iX_6wBr5gbimC3fOOkyukbEl4pYE8hAqIyr24dxz04pdcYPwcGtXQuGIwvuRWa7m4-7J9qj3dRHxfeXnCYq3bSjZ6xixWEnzmh2xIe21oCe6W4Vzr0oR8zQezdqCP399bJm93X6XO3P72lnAF5TfYH0ZqKQMKQfLIYx7YsOk4gNCF_UTgVT27UsL1Cp0ARz8Wpr31JGZNgCE7qUwSR8WtLnT1PLumTb2joTfsnORp8Tq7Cx4D6CPHQyf2SgsuYU9AGDrSRHL2yIZBja57iCwc_V42On1ZKc6MwvUuHaRb0KVgIIglYZTabWl5OLXtAAf9f33IgYx4x2Gagd2Xwjg9HV05r02aDAAvG9mwU1puUWcyH1JJZll6s1gAtW-CQpbjZ7DQZpvonIGI2H4bkTT-TAbqp2N8RPdHG3Y9UDr8n4CkZPfJaERZ7MuEbR-TmqKi1--Fj3L2vKhnqKAnGtwDTj44_tKGXbjM5yCfFOZCMnTpnrSQDSrrJnidMeb16B5kzEv86Il4TeaPMy_qjkNIX6UrY0PPUmqpZ2IVSlvxUO_As4Oi8NLRds6uIrJR5nE93kUdKWmjsio8_XJZtztj2-O_h1eewxlQv8IlwpW_rQbS_VJ1gHzicT5UYfdpYeuG3YRwlHENieTpUrzeqPMdWnRLePKLOZ1FQVY7VluyiXMc-mjME6-a0vrHoMr8eh27hjK86WqdBr218lcrUDwBQh4f43r3C5u-8hHRs1nBr3zL8QWbVVUANUNztx-c5jIp_TexPhaXO7--7s4oEXumzhJvCxQMIPDDfAU2pQChhWnswNubWajgCDgO_JYz1OQfPDwYJhtI-3ssMA4uOJbAZFwRhuyq7M6q7mOe88s3np5rcg6v4yH2s-QEjWoQD6hm-Ybucb9VKKwoQFtcQgyC2ZATw8ZULU0szgfE6xHoZZwWBZaRjlBtLml9F3s4-NdjoZv0ZzIfAzAhtE3T63-hvuLTSSXYUFoVoYhQCdLoHcsVQXNAiDKOjehoSe7wb535MY5iDa8hOQrEaUyE7EDk8oh4k362Tn7Vr4ithZDAHPyI5Z3k-sXbd_0G00?></g></svg>