<svg xmlns="http://www.w3.org/2000/svg" xmlns:xlink="http://www.w3.org/1999/xlink" version="1.1" data-diagram-type="STATE" style="width:1268px;height:1355px;background:#FAF9FF;" width="1268px" height="1355px" viewBox="0 0 1268 1355" zoomAndPan="magnify" preserveAspectRatio="none" contentStyleType="text/css"><?plantuml 1.2026.7beta11?><defs/><g font-family="sans-serif" lengthAdjust="spacing"><rect x="0" y="0" width="1268" height="1355" fill="#FAF9FF" style="stroke:none;"/><g class="title" data-source-line="1"><text x="488.641" y="22.995" fill="#000" font-size="14" textLength="284.689" font-weight="700">A-COP Case Lifecycle State Diagram</text></g><!--cluster Waiting--><g class="cluster" data-qualified-name="Waiting" id="ent0005" data-source-line="24"><path d="M108.5,699.357 L575.5,699.357 A12.5,12.5 0 0 1 588,711.857 L588,720.654 L96,720.654 L96,711.857 A12.5,12.5 0 0 1 108.5,699.357" fill="#F5F3FF"/><path d="M96,720.654 L588,720.654 L588,787.857 A12.5,12.5 0 0 1 575.5,800.357 L108.5,800.357 A12.5,12.5 0 0 1 96,787.857 L96,720.654" fill="#F5F3FF"/><rect x="96" y="699.357" width="492" height="101" fill="none" style="stroke:#6B7280;stroke-width:0.5;" rx="12.5" ry="12.5"/><line x1="96" y1="720.654" x2="588" y2="720.654" style="stroke:#6B7280;stroke-width:0.5;"/><text x="329.12" y="716.352" fill="#000" font-size="14" textLength="25.76">대기</text></g><g class="entity" data-qualified-name="Waiting.WaitingInput" id="ent0006" data-source-line="25"><rect x="282.97" y="734.357" width="114.069" height="50" fill="#FEF3C7" style="stroke:#D97706;stroke-width:0.5;" rx="12.5" ry="12.5"/><line x1="282.97" y1="760.654" x2="397.039" y2="760.654" style="stroke:#D97706;stroke-width:0.5;"/><text x="292.97" y="752.352" fill="#000" font-size="14" textLength="94.069">waiting_input</text></g><g class="entity" data-qualified-name="Waiting.WaitingApproval" id="ent0007" data-source-line="26"><rect x="432.26" y="734.357" width="139.485" height="50" fill="#FEF3C7" style="stroke:#D97706;stroke-width:0.5;" rx="12.5" ry="12.5"/><line x1="432.26" y1="760.654" x2="571.745" y2="760.654" style="stroke:#D97706;stroke-width:0.5;"/><text x="442.26" y="752.352" fill="#000" font-size="14" textLength="119.485">waiting_approval</text></g><g class="entity" data-qualified-name="Waiting.WaitingExternal" id="ent0008" data-source-line="27"><rect x="111.92" y="734.357" width="136.156" height="50" fill="#FEF3C7" style="stroke:#D97706;stroke-width:0.5;" rx="12.5" ry="12.5"/><line x1="111.92" y1="760.654" x2="248.076" y2="760.654" style="stroke:#D97706;stroke-width:0.5;"/><text x="121.92" y="752.352" fill="#000" font-size="14" textLength="116.156">waiting_external</text></g><g class="entity" data-qualified-name="New" id="ent0001" data-source-line="19"><rect x="10" y="124.297" width="50" height="50" fill="#DBEAFE" style="stroke:#2563EB;stroke-width:0.5;" rx="12.5" ry="12.5"/><line x1="10" y1="150.594" x2="60" y2="150.594" style="stroke:#2563EB;stroke-width:0.5;"/><text x="20.532" y="142.292" fill="#000" font-size="14" textLength="28.937">new</text></g><g class="entity" data-qualified-name="Classifying" id="ent0002" data-source-line="20"><rect x="1037.25" y="251.297" width="93.507" height="50" fill="#DBEAFE" style="stroke:#2563EB;stroke-width:0.5;" rx="12.5" ry="12.5"/><line x1="1037.25" y1="277.594" x2="1130.757" y2="277.594" style="stroke:#2563EB;stroke-width:0.5;"/><text x="1047.25" y="269.292" fill="#000" font-size="14" textLength="73.507">classifying</text></g><g class="entity" data-qualified-name="Routing" id="ent0003" data-source-line="21"><rect x="1048.83" y="418.827" width="70.333" height="50" fill="#DBEAFE" style="stroke:#2563EB;stroke-width:0.5;" rx="12.5" ry="12.5"/><line x1="1048.83" y1="445.124" x2="1119.163" y2="445.124" style="stroke:#2563EB;stroke-width:0.5;"/><text x="1058.83" y="436.822" fill="#000" font-size="14" textLength="50.333">routing</text></g><g class="entity" data-qualified-name="Running" id="ent0004" data-source-line="22"><rect x="607.99" y="586.357" width="74.024" height="50" fill="#DBEAFE" style="stroke:#2563EB;stroke-width:0.5;" rx="12.5" ry="12.5"/><line x1="607.99" y1="612.654" x2="682.014" y2="612.654" style="stroke:#2563EB;stroke-width:0.5;"/><text x="617.99" y="604.352" fill="#000" font-size="14" textLength="54.024">running</text></g><g class="entity" data-qualified-name="Resuming" id="ent0009" data-source-line="30"><rect x="353.09" y="418.827" width="85.823" height="50" fill="#DBEAFE" style="stroke:#2563EB;stroke-width:0.5;" rx="12.5" ry="12.5"/><line x1="353.09" y1="445.124" x2="438.913" y2="445.124" style="stroke:#2563EB;stroke-width:0.5;"/><text x="363.09" y="436.822" fill="#000" font-size="14" textLength="65.823">resuming</text></g><g class="entity" data-qualified-name="Resolved" id="ent0010" data-source-line="31"><rect x="619.05" y="734.357" width="79.903" height="50" fill="#DCFCE7" style="stroke:#16A34A;stroke-width:0.5;" rx="12.5" ry="12.5"/><line x1="619.05" y1="760.654" x2="698.953" y2="760.654" style="stroke:#16A34A;stroke-width:0.5;"/><text x="629.05" y="752.352" fill="#000" font-size="14" textLength="59.903">resolved</text></g><g class="entity" data-qualified-name="Escalated" id="ent0011" data-source-line="32"><rect x="732.18" y="863.357" width="87.642" height="50" fill="#FEE2E2" style="stroke:#DC2626;stroke-width:0.5;" rx="12.5" ry="12.5"/><line x1="732.18" y1="889.654" x2="819.822" y2="889.654" style="stroke:#DC2626;stroke-width:0.5;"/><text x="742.18" y="881.352" fill="#000" font-size="14" textLength="67.642">escalated</text></g><g class="entity" data-qualified-name="Failed" id="ent0012" data-source-line="33"><rect x="741.61" y="734.357" width="58.787" height="50" fill="#FEE2E2" style="stroke:#DC2626;stroke-width:0.5;" rx="12.5" ry="12.5"/><line x1="741.61" y1="760.654" x2="800.397" y2="760.654" style="stroke:#DC2626;stroke-width:0.5;"/><text x="751.61" y="752.352" fill="#000" font-size="14" textLength="38.787">failed</text></g><g class="entity" data-qualified-name="Cancelled" id="ent0013" data-source-line="34"><rect x="429.63" y="990.357" width="86.739" height="50" fill="#FEE2E2" style="stroke:#DC2626;stroke-width:0.5;" rx="12.5" ry="12.5"/><line x1="429.63" y1="1016.654" x2="516.369" y2="1016.654" style="stroke:#DC2626;stroke-width:0.5;"/><text x="439.63" y="1008.352" fill="#000" font-size="14" textLength="66.739">cancelled</text></g><g class="start_entity" data-qualified-name=".start." id="ent0014" data-source-line="36"><ellipse cx="35" cy="53.297" rx="10" ry="10" fill="#222" style="stroke:#222;stroke-width:1;"/></g><g class="end_entity" data-qualified-name=".end." id="ent0039" data-source-line="60"><ellipse cx="473" cy="1112.357" rx="11" ry="11" fill="none" style="stroke:#222;stroke-width:1;"/><ellipse cx="473" cy="1112.357" rx="6" ry="6" fill="#222" style="stroke:#222;stroke-width:1;"/></g><g class="entity" data-qualified-name="GMN41" id="ent0042" data-source-line="63"><path d="M473.82,378.297 L473.82,439.827 L439.16,443.827 L473.82,447.827 L473.82,509.359 A0,0 0 0 0 473.82,509.359 L1014.179,509.359 A0,0 0 0 0 1014.179,509.359 L1014.179,388.297 L1004.179,378.297 L473.82,378.297 A0,0 0 0 0 473.82,378.297" style="stroke:#181818;stroke-width:0.5;" fill="#FEFFDD"/><path d="M1004.179,378.297 L1004.179,388.297 L1014.179,388.297 L1004.179,378.297" style="stroke:#181818;stroke-width:0.5;" fill="#FEFFDD"/><text x="479.82" y="395.364" fill="#000" font-size="13" textLength="171.455">상태 변경은 transition_case(</text><text x="479.82" y="410.497" fill="#000" font-size="13" textLength="256.026">case_id, expected_version, event_type,</text><text x="479.82" y="425.629" fill="#000" font-size="13" textLength="258.59">payload, actor) 단일 진입점으로만 수행한다.</text><text x="479.82" y="440.762" fill="#000" font-size="13" textLength="229.146">affected row = 0 이면 StateConflict.</text><text x="479.82" y="455.895" fill="#000" font-size="13" textLength="439.455">WAIT reason: customer_input | human_approval | external_callback</text><text x="479.82" y="471.028" fill="#000" font-size="13" textLength="519.359">resume node: validate_input | execute_approved_action | verify_external_result</text><text x="479.82" y="486.161" fill="#000" font-size="13" textLength="344.812">Resume token은 hash만 저장하며 24시간 TTL·일회성이다.</text><text x="479.82" y="501.293" fill="#000" font-size="13" textLength="374.286">TTL 만료는 자동 종료가 아니라 escalated와 운영자 알림을 만든다.</text></g><!--link *start* to New--><g class="link" data-entity-1="ent0014" data-entity-2="ent0001" id="lnk15" data-source-line="36" data-link-type="dependency"><path d="M35,63.647 C35,77.587 35,99.247 35,118.947" style="stroke:#4B5563;stroke-width:1;" fill="none" id="*start*-to-New"/><polygon points="35,123.947,39,114.947,35,118.947,31,114.947,35,123.947" fill="#4B5563" style="stroke:#4B5563;stroke-width:1;stroke-linejoin:miter;stroke-miterlimit:10;"/></g><!--link New to Classifying--><g class="link" data-entity-1="ent0001" data-entity-2="ent0002" id="lnk16" data-source-line="37" data-link-type="dependency"><path d="M60.41,153.327 C198,169.717 849.365,247.335 1031.855,269.085" style="stroke:#4B5563;stroke-width:1;" fill="none" id="New-to-Classifying"/><polygon points="1036.82,269.677,1028.357,264.64,1031.855,269.085,1027.41,272.584,1036.82,269.677" fill="#4B5563" style="stroke:#4B5563;stroke-width:1;stroke-linejoin:miter;stroke-miterlimit:10;"/><text x="623" y="217.364" fill="#000" font-size="13" textLength="49.804">created</text></g><!--link New to Cancelled--><g class="link" data-entity-1="ent0001" data-entity-2="ent0013" id="lnk17" data-source-line="38" data-link-type="dependency"><path d="M25.98,174.347 C17.47,199.237 6,239.427 6,275.297 C6,275.297 6,275.297 6,889.357 C6,976.537 308.56,1004.226 424.5,1011.676" style="stroke:#4B5563;stroke-width:1;" fill="none" id="New-to-Cancelled"/><polygon points="429.49,1011.997,420.765,1007.428,424.5,1011.676,420.252,1015.412,429.49,1011.997" fill="#4B5563" style="stroke:#4B5563;stroke-width:1;stroke-linejoin:miter;stroke-miterlimit:10;"/><text x="7" y="615.924" fill="#000" font-size="13" textLength="23.92">취소</text></g><!--link Classifying to Routing--><g class="link" data-entity-1="ent0002" data-entity-2="ent0003" id="lnk18" data-source-line="39" data-link-type="dependency"><path d="M1084,301.717 C1084,333.107 1084,382.267 1084,413.567" style="stroke:#4B5563;stroke-width:1;" fill="none" id="Classifying-to-Routing"/><polygon points="1084,418.567,1088,409.567,1084,413.567,1080,409.567,1084,418.567" fill="#4B5563" style="stroke:#4B5563;stroke-width:1;stroke-linejoin:miter;stroke-miterlimit:10;"/><text x="1085" y="344.364" fill="#000" font-size="13" textLength="60.322">classified</text></g><!--link Classifying to Escalated--><g class="link" data-entity-1="ent0002" data-entity-2="ent0011" id="lnk19" data-source-line="40" data-link-type="dependency"><path d="M1122.82,301.567 C1133.98,309.947 1145.43,320.077 1154,331.297 C1186.55,373.897 1200,389.207 1200,442.827 C1200,442.827 1200,442.827 1200,760.357 C1200,839.027 933.747,872.616 825.157,883.106" style="stroke:#4B5563;stroke-width:1;" fill="none" id="Classifying-to-Escalated"/><polygon points="820.18,883.587,829.523,886.703,825.157,883.106,828.754,878.74,820.18,883.587" fill="#4B5563" style="stroke:#4B5563;stroke-width:1;stroke-linejoin:miter;stroke-miterlimit:10;"/><text x="1201" y="615.924" fill="#000" font-size="13" textLength="51.972">분류 불가</text></g><!--link Routing to Running--><g class="link" data-entity-1="ent0003" data-entity-2="ent0004" id="lnk20" data-source-line="41" data-link-type="dependency"><path d="M1069.81,469.277 C1060.67,482.977 1047.59,499.277 1032,509.357 C919.02,582.397 760.365,602.356 687.465,607.926" style="stroke:#4B5563;stroke-width:1;" fill="none" id="Routing-to-Running"/><polygon points="682.48,608.307,691.759,611.61,687.465,607.926,691.149,603.633,682.48,608.307" fill="#4B5563" style="stroke:#4B5563;stroke-width:1;stroke-linejoin:miter;stroke-miterlimit:10;"/><text x="976" y="552.424" fill="#000" font-size="13" textLength="67.59">team_task</text></g><!--link Routing to Escalated--><g class="link" data-entity-1="ent0003" data-entity-2="ent0011" id="lnk21" data-source-line="42" data-link-type="dependency"><path d="M1084.19,469.267 C1084.28,545.997 1080.42,780.187 1031,833.357 C1002.93,863.557 890.57,877.678 825.29,883.568" style="stroke:#4B5563;stroke-width:1;" fill="none" id="Routing-to-Escalated"/><polygon points="820.31,884.017,829.633,887.192,825.29,883.568,828.914,879.224,820.31,884.017" fill="#4B5563" style="stroke:#4B5563;stroke-width:1;stroke-linejoin:miter;stroke-miterlimit:10;"/><text x="1076" y="679.424" fill="#000" font-size="13" textLength="91.262">capability 없음</text></g><!--link Running to WaitingInput--><g class="link" data-entity-1="ent0004" data-entity-2="ent0006" id="lnk22" data-source-line="43" data-link-type="dependency"><path d="M607.58,619.657 C546.22,631.837 429.38,655.987 413,666.357 C386.47,683.157 367.991,708.737 355.451,729.877" style="stroke:#4B5563;stroke-width:1;" fill="none" id="Running-to-WaitingInput"/><polygon points="352.9,734.177,360.932,728.477,355.451,729.877,354.051,724.396,352.9,734.177" fill="#4B5563" style="stroke:#4B5563;stroke-width:1;stroke-linejoin:miter;stroke-miterlimit:10;"/><text x="414" y="679.424" fill="#000" font-size="13" textLength="89.864">missing_input</text></g><!--link Running to WaitingApproval--><g class="link" data-entity-1="ent0004" data-entity-2="ent0007" id="lnk23" data-source-line="44" data-link-type="dependency"><path d="M607.76,619.247 C580.03,626.337 543.41,640.177 522,666.357 C506.48,685.337 502.483,708.661 501.663,728.861" style="stroke:#4B5563;stroke-width:1;" fill="none" id="Running-to-WaitingApproval"/><polygon points="501.46,733.857,505.822,725.027,501.663,728.861,497.828,724.702,501.46,733.857" fill="#4B5563" style="stroke:#4B5563;stroke-width:1;stroke-linejoin:miter;stroke-miterlimit:10;"/><text x="523" y="679.424" fill="#000" font-size="13" textLength="118.581">approval_required</text></g><!--link Running to WaitingExternal--><g class="link" data-entity-1="ent0004" data-entity-2="ent0008" id="lnk24" data-source-line="45" data-link-type="dependency"><path d="M607.56,620.577 C583.96,625.577 552.79,631.847 525,636.357 C418.89,653.577 383.07,622.337 285,666.357 C250.73,681.737 222.79,708.497 203.46,730.147" style="stroke:#4B5563;stroke-width:1;" fill="none" id="Running-to-WaitingExternal"/><polygon points="200.13,733.877,209.108,729.827,203.46,730.147,203.14,724.499,200.13,733.877" fill="#4B5563" style="stroke:#4B5563;stroke-width:1;stroke-linejoin:miter;stroke-miterlimit:10;"/><text x="286" y="679.424" fill="#000" font-size="13" textLength="98.77">async_provider</text></g><!--link Running to Resolved--><g class="link" data-entity-1="ent0004" data-entity-2="ent0010" id="lnk25" data-source-line="46" data-link-type="dependency"><path d="M647.34,636.797 C649.94,663.907 653.632,702.4 656.222,729.35" style="stroke:#4B5563;stroke-width:1;" fill="none" id="Running-to-Resolved"/><polygon points="656.7,734.327,659.821,724.985,656.222,729.35,651.857,725.751,656.7,734.327" fill="#4B5563" style="stroke:#4B5563;stroke-width:1;stroke-linejoin:miter;stroke-miterlimit:10;"/><text x="652" y="679.424" fill="#000" font-size="13" textLength="68.974">completed</text></g><!--link Running to Failed--><g class="link" data-entity-1="ent0004" data-entity-2="ent0012" id="lnk26" data-source-line="47" data-link-type="dependency"><path d="M682.34,630.217 C698.3,639.297 716.17,651.547 729,666.357 C746.13,686.127 755.985,709.308 762.535,729.188" style="stroke:#4B5563;stroke-width:1;" fill="none" id="Running-to-Failed"/><polygon points="764.1,733.937,765.083,724.137,762.535,729.188,757.485,726.641,764.1,733.937" fill="#4B5563" style="stroke:#4B5563;stroke-width:1;stroke-linejoin:miter;stroke-miterlimit:10;"/><text x="741" y="679.424" fill="#000" font-size="13" textLength="106.234">retry_exhausted</text></g><!--link Running to Escalated--><g class="link" data-entity-1="ent0004" data-entity-2="ent0011" id="lnk27" data-source-line="48" data-link-type="dependency"><path d="M682.41,616.467 C737.16,623.347 834.9,639.177 856,666.357 C866.9,680.397 935.48,665.657 846,833.357 C839.79,845.007 833.816,851.872 823.356,859.902" style="stroke:#4B5563;stroke-width:1;" fill="none" id="Running-to-Escalated"/><polygon points="819.39,862.947,828.965,860.639,823.356,859.902,824.093,854.294,819.39,862.947" fill="#4B5563" style="stroke:#4B5563;stroke-width:1;stroke-linejoin:miter;stroke-miterlimit:10;"/><text x="892" y="763.924" fill="#000" font-size="13" textLength="80.025">자동 처리 한계</text></g><!--link WaitingInput to Resuming--><g class="link" data-entity-1="ent0006" data-entity-2="ent0009" id="lnk28" data-source-line="49" data-link-type="dependency"><path d="M336.59,733.857 C332.62,700.237 327.81,638.077 338,586.357 C346.52,543.107 366.07,500.871 380.38,473.401" style="stroke:#4B5563;stroke-width:1;" fill="none" id="WaitingInput-to-Resuming"/><polygon points="382.69,468.967,374.984,475.101,380.38,473.401,382.079,478.797,382.69,468.967" fill="#4B5563" style="stroke:#4B5563;stroke-width:1;stroke-linejoin:miter;stroke-miterlimit:10;"/><text x="339" y="615.924" fill="#000" font-size="13" textLength="71.075">valid_input</text></g><!--link WaitingInput to Escalated--><g class="link" data-entity-1="ent0006" data-entity-2="ent0011" id="lnk29" data-source-line="50" data-link-type="dependency"><path d="M370.3,784.747 C383.3,793.837 399.13,803.187 415,808.357 C470.88,826.557 489.33,805.017 547,816.357 C570.03,820.887 574.65,826.187 597,833.357 C642.75,848.027 690.623,862.376 726.933,873.056" style="stroke:#4B5563;stroke-width:1;" fill="none" id="WaitingInput-to-Escalated"/><polygon points="731.73,874.467,724.224,868.09,726.933,873.056,721.967,875.765,731.73,874.467" fill="#4B5563" style="stroke:#4B5563;stroke-width:1;stroke-linejoin:miter;stroke-miterlimit:10;"/><text x="598" y="829.424" fill="#000" font-size="13" textLength="13.806">ttl</text></g><!--link WaitingApproval to Resuming--><g class="link" data-entity-1="ent0007" data-entity-2="ent0009" id="lnk30" data-source-line="51" data-link-type="dependency"><path d="M493.85,734.247 C474.13,675.927 425.632,532.463 405.832,473.903" style="stroke:#4B5563;stroke-width:1;" fill="none" id="WaitingApproval-to-Resuming"/><polygon points="404.23,469.167,403.323,478.974,405.832,473.903,410.902,476.412,404.23,469.167" fill="#4B5563" style="stroke:#4B5563;stroke-width:1;stroke-linejoin:miter;stroke-miterlimit:10;"/><text x="460" y="615.924" fill="#000" font-size="13" textLength="61.712">approved</text></g><!--link WaitingApproval to Escalated--><g class="link" data-entity-1="ent0007" data-entity-2="ent0011" id="lnk31" data-source-line="52" data-link-type="dependency"><path d="M552.26,784.737 C568.14,792.377 585.77,800.777 602,808.357 C646.04,828.917 692.099,849.768 727.339,865.598" style="stroke:#4B5563;stroke-width:1;" fill="none" id="WaitingApproval-to-Escalated"/><polygon points="731.9,867.647,725.329,860.31,727.339,865.598,722.051,867.608,731.9,867.647" fill="#4B5563" style="stroke:#4B5563;stroke-width:1;stroke-linejoin:miter;stroke-miterlimit:10;"/><text x="655" y="829.424" fill="#000" font-size="13" textLength="93.552">rejected_or_ttl</text></g><!--link WaitingExternal to Resuming--><g class="link" data-entity-1="ent0008" data-entity-2="ent0009" id="lnk32" data-source-line="53" data-link-type="dependency"><path d="M190.28,733.897 C205.25,699.517 234.99,635.597 269,586.357 C299.77,541.807 339.687,499.775 366.947,472.785" style="stroke:#4B5563;stroke-width:1;" fill="none" id="WaitingExternal-to-Resuming"/><polygon points="370.5,469.267,361.29,472.757,366.947,472.785,366.919,478.442,370.5,469.267" fill="#4B5563" style="stroke:#4B5563;stroke-width:1;stroke-linejoin:miter;stroke-miterlimit:10;"/><text x="270" y="615.924" fill="#000" font-size="13" textLength="53.231">callback</text></g><!--link WaitingExternal to Escalated--><g class="link" data-entity-1="ent0008" data-entity-2="ent0011" id="lnk33" data-source-line="54" data-link-type="dependency"><path d="M216.28,784.677 C230.87,793.407 248.19,802.527 265,808.357 C351.51,838.347 619.67,870.156 727.05,882.066" style="stroke:#4B5563;stroke-width:1;" fill="none" id="WaitingExternal-to-Escalated"/><polygon points="732.02,882.617,723.516,877.649,727.05,882.066,722.634,885.6,732.02,882.617" fill="#4B5563" style="stroke:#4B5563;stroke-width:1;stroke-linejoin:miter;stroke-miterlimit:10;"/><text x="372" y="829.424" fill="#000" font-size="13" textLength="13.806">ttl</text></g><!--link Resuming to Running--><g class="link" data-entity-1="ent0009" data-entity-2="ent0004" id="lnk34" data-source-line="55" data-link-type="dependency"><path d="M415.15,469.057 C426.19,482.027 440.85,497.687 456,509.357 C504.19,546.477 563.343,575.364 603.103,592.854" style="stroke:#4B5563;stroke-width:1;" fill="none" id="Resuming-to-Running"/><polygon points="607.68,594.867,601.052,587.582,603.103,592.854,597.831,594.904,607.68,594.867" fill="#4B5563" style="stroke:#4B5563;stroke-width:1;stroke-linejoin:miter;stroke-miterlimit:10;"/><text x="526" y="552.424" fill="#000" font-size="13" textLength="64.869">token 유효</text></g><!--link Resuming to Escalated--><g class="link" data-entity-1="ent0009" data-entity-2="ent0011" id="lnk35" data-source-line="56" data-link-type="dependency"><path d="M411.5,469.187 C422.12,483.597 437.6,500.677 456,509.357 C506.33,533.107 914.67,502.087 956,539.357 C1000.58,579.567 1014.97,758.857 981,808.357 C944.96,860.877 873.664,877.884 824.994,883.794" style="stroke:#4B5563;stroke-width:1;" fill="none" id="Resuming-to-Escalated"/><polygon points="820.03,884.397,829.447,887.283,824.994,883.794,828.482,879.341,820.03,884.397" fill="#4B5563" style="stroke:#4B5563;stroke-width:1;stroke-linejoin:miter;stroke-miterlimit:10;"/><text x="999" y="679.424" fill="#000" font-size="13" textLength="64.869">token 무효</text></g><!--link Resolved to Cancelled--><g class="link" data-entity-1="ent0010" data-entity-2="ent0013" id="lnk36" data-source-line="57" data-link-type="dependency"><path d="M630.09,784.817 C617.87,793.787 603.01,803.047 588,808.357 C568.45,815.277 509.85,801.877 495,816.357 C448.21,861.997 457.517,943.269 466.117,985.249" style="stroke:#4B5563;stroke-width:1;" fill="none" id="Resolved-to-Cancelled"/><polygon points="467.12,990.147,469.232,980.527,466.117,985.249,461.395,982.133,467.12,990.147" fill="#4B5563" style="stroke:#4B5563;stroke-width:1;stroke-linejoin:miter;stroke-miterlimit:10;"/><text x="468" y="892.924" fill="#000" font-size="13" textLength="23.92">취소</text></g><!--link Escalated to Cancelled--><g class="link" data-entity-1="ent0011" data-entity-2="ent0013" id="lnk37" data-source-line="58" data-link-type="dependency"><path d="M731.94,907.537 C674.33,931.297 578.632,970.78 521.242,994.45" style="stroke:#4B5563;stroke-width:1;" fill="none" id="Escalated-to-Cancelled"/><polygon points="516.62,996.357,526.465,996.623,521.242,994.45,523.415,989.227,516.62,996.357" fill="#4B5563" style="stroke:#4B5563;stroke-width:1;stroke-linejoin:miter;stroke-miterlimit:10;"/><text x="643" y="956.424" fill="#000" font-size="13" textLength="23.92">취소</text></g><!--link Failed to Escalated--><g class="link" data-entity-1="ent0012" data-entity-2="ent0011" id="lnk38" data-source-line="59" data-link-type="dependency"><path d="M771.96,784.847 C772.85,807.337 773.952,835.481 774.842,857.951" style="stroke:#4B5563;stroke-width:1;" fill="none" id="Failed-to-Escalated"/><polygon points="775.04,862.947,778.681,853.796,774.842,857.951,770.687,854.112,775.04,862.947" fill="#4B5563" style="stroke:#4B5563;stroke-width:1;stroke-linejoin:miter;stroke-miterlimit:10;"/><text x="774" y="829.424" fill="#000" font-size="13" textLength="63.932">운영자 이관</text></g><!--link Cancelled to *end*--><g class="link" data-entity-1="ent0013" data-entity-2="ent0039" id="lnk40" data-source-line="60" data-link-type="dependency"><path d="M473,1040.817 C473,1060.397 473,1081.847 473,1096.157" style="stroke:#4B5563;stroke-width:1;" fill="none" id="Cancelled-to-*end*"/><polygon points="473,1101.157,477,1092.157,473,1096.157,469,1092.157,473,1101.157" fill="#4B5563" style="stroke:#4B5563;stroke-width:1;stroke-linejoin:miter;stroke-miterlimit:10;"/></g><g class="legend" data-source-line="73"><rect x="834.825" y="1143.357" width="415.147" height="193.266" fill="none" style="stroke:#000;stroke-width:1;" rx="7.5" ry="7.5"/><text x="839.825" y="1163.352" fill="#000" font-size="14" textLength="25.76" font-weight="700">색상</text><text x="948.175" y="1163.352" fill="#000" font-size="14" textLength="25.76" font-weight="700">의미</text><rect x="839.825" y="1166.654" width="108.35" height="16.297" fill="#DBEAFE" style="stroke:none;"/><text x="839.825" y="1179.649" fill="#000" font-size="14"> </text><text x="948.175" y="1179.649" fill="#000" font-size="14" textLength="55.97">정상 흐름</text><rect x="839.825" y="1182.951" width="108.35" height="16.297" fill="#FEF3C7" style="stroke:none;"/><text x="839.825" y="1195.946" fill="#000" font-size="14"> </text><text x="948.175" y="1195.946" fill="#000" font-size="14" textLength="55.97">대기 상태</text><rect x="839.825" y="1199.248" width="108.35" height="16.297" fill="#DCFCE7" style="stroke:none;"/><text x="839.825" y="1212.243" fill="#000" font-size="14"> </text><text x="948.175" y="1212.243" fill="#000" font-size="14" textLength="120.323">정상 종료 resolved</text><rect x="839.825" y="1215.544" width="108.35" height="16.297" fill="#FEE2E2" style="stroke:none;"/><text x="839.825" y="1228.539" fill="#000" font-size="14"> </text><text x="948.175" y="1228.539" fill="#000" font-size="14" textLength="260.289">이상 종료 escalated · failed · cancelled</text><text x="839.825" y="1244.836" fill="#000" font-size="14" textLength="56.394" font-weight="700">운영 규칙</text><text x="948.175" y="1244.836" fill="#000" font-size="14" textLength="25.76" font-weight="700">내용</text><text x="839.825" y="1261.133" fill="#000" font-size="14" textLength="68.85">단일 진입점</text><text x="948.175" y="1261.133" fill="#000" font-size="14" textLength="222.272">transition_case와 낙관적 버전 검증</text><text x="839.825" y="1277.43" fill="#000" font-size="14" textLength="108.35">WAIT / RESUME</text><text x="948.175" y="1277.43" fill="#000" font-size="14" textLength="296.797">WAIT reason과 resume node를 계약으로 고정</text><text x="839.825" y="1293.727" fill="#000" font-size="14" textLength="56.394" font-weight="700">라벨 출처</text><text x="948.175" y="1293.727" fill="#000" font-size="14" textLength="25.76" font-weight="700">내용</text><text x="839.825" y="1310.024" fill="#000" font-size="14" textLength="55.97">영문 라벨</text><text x="948.175" y="1310.024" fill="#000" font-size="14" textLength="234.415">§19 mermaid 초안에 명시된 이벤트명</text><text x="839.825" y="1326.321" fill="#000" font-size="14" textLength="55.97">한글 라벨</text><text x="948.175" y="1326.321" fill="#000" font-size="14" textLength="287.805">§19 표에는 있으나 이벤트명이 없는 전이. 설명용</text><line x1="839.825" y1="1150.357" x2="1244.972" y2="1150.357" style="stroke:#000;stroke-width:1;"/><line x1="839.825" y1="1166.654" x2="1244.972" y2="1166.654" style="stroke:#000;stroke-width:1;"/><line x1="839.825" y1="1182.951" x2="1244.972" y2="1182.951" style="stroke:#000;stroke-width:1;"/><line x1="839.825" y1="1199.248" x2="1244.972" y2="1199.248" style="stroke:#000;stroke-width:1;"/><line x1="839.825" y1="1215.544" x2="1244.972" y2="1215.544" style="stroke:#000;stroke-width:1;"/><line x1="839.825" y1="1231.841" x2="1244.972" y2="1231.841" style="stroke:#000;stroke-width:1;"/><line x1="839.825" y1="1248.138" x2="1244.972" y2="1248.138" style="stroke:#000;stroke-width:1;"/><line x1="839.825" y1="1264.435" x2="1244.972" y2="1264.435" style="stroke:#000;stroke-width:1;"/><line x1="839.825" y1="1280.732" x2="1244.972" y2="1280.732" style="stroke:#000;stroke-width:1;"/><line x1="839.825" y1="1297.029" x2="1244.972" y2="1297.029" style="stroke:#000;stroke-width:1;"/><line x1="839.825" y1="1313.326" x2="1244.972" y2="1313.326" style="stroke:#000;stroke-width:1;"/><line x1="839.825" y1="1329.623" x2="1244.972" y2="1329.623" style="stroke:#000;stroke-width:1;"/><line x1="839.825" y1="1150.357" x2="839.825" y2="1329.623" style="stroke:#000;stroke-width:1;"/><line x1="948.175" y1="1150.357" x2="948.175" y2="1329.623" style="stroke:#000;stroke-width:1;"/><line x1="1244.972" y1="1150.357" x2="1244.972" y2="1329.623" style="stroke:#000;stroke-width:1;"/></g><?plantuml-src VLPRJnj757xVNt6KlBHLeCJSYaMGAALI97fHGfM7ghB6wrcyPRthxgu1gwvam4HEi5Igrer1Dd9RhXLIALY1IkI5d-CP_uUSsTbThutf2yoSytt7v_BDpBgwQr2O7PhxwckO8mw51LsZQbv5utENk1G-qycIJJAAiwoRMO8hI19rUScsScPgpZ8i6nvgH9lIj0Z2IPEKjQgRIw0Hmw4HpwnjMwi-RImvFZun6d4kw2Qzp-TuoVoe07ngsIbg-xY9v6Jian5XlPFKk3QAITtnJ4-RbfqXnimCF4mbAT5eRyoeFuOvqEIW6Aj4TmL2ezgeEjaV8V2cfYOdHoO6yMtgMCOAJNaeLLFfdHXHnEC9CZf61iKXoMws6gKn6kkF4qMarDX4R4BvIL5aEn-OTFK140U-fAlGBJpmgWPn75tBuo0zr5ntFm2DQRa1yfbS3qBbJ3D4oNKK5S1OfTY-FlTGBx2P0YLcxtjNfIc1uiYvKT1JOO1W07S999krhHLYH3cplkr_Q7JDfRRPIvltRLrQjwqukrmchDBV36g6F-C0vsqWEli0IHsL6BYIqFbW1z7v1bYDw8OF_DnR3aIfn5If4G3dWbqlLldse-zWQ6X624GH8X7hg0pYeDfKPDBrXf7YmAzE-CkA4YK8IA0E94kFZln-KBV6EB2t9NPOmt_bzdbH2UXUA5z2SN0foIHSuYpt-ADHL98bITtGtJpmDozvew84R87iKL0SCZfc4qXi432KJHm2LILi-aDEjx6O0VXGBuXtygQQ41mTpsaFE1G1fcjbiWPr-wBv4us3JLqxZyfCavpJ3ufMpVTtsC-xm2zgxEWCEjLw-xAaz1Jh_wuKQHom43tbrtq75utikeRItuo-MB8pcDqWN3IMJR-dAYuJbfs8n0sRrXSNYOPuXWRY-dCCUNs2iPQf2RpUxEoTz69w0dWeTjRoKN8wzmYzIxm7u4_lpepsMhosZfC2tcYrMqMbInLGF8IAObfuQcrzAUs2fOMzKFZcUcUp3koosBvunnj5S6rYEjWKoqoe-9v_e8Y_2Jtr2EXQLlPuXTeE-j6oGaqtuUQpz96I9Nd38WWZgclP7mBRFk6D6-379Rw_nPixl7x3_gYpumhmSgtp-ojK4ji-65Q8fdbH0HzsU08ZeWHssf9V3tEMgHcwwWuhBsQVBkAKYMEPE3wKh9MXjbGP522Ton0pl9tH4DouYN3ItfrAmRHIrDSenWy3q3Mgvd0V22w1LM29wC5YyLO9h_24Y6EuSk1KZbUqBKsSj5TSiyZt3plL6ZizXzWOtwwtpqkmkBXmUuNjwEnLUEbVKQ4e7Qs07FPNXRt-BJneVswX0UyfuDKIsoupR69uU_FTOdJOrGexkk6DaXVbrwONb9ef4BDM58CkYKtISh5PSlHAuGdVV8Kp1rmqQkoVwu9IcFQ_OsOAl5aLlavZXnsLF8_yFfafoFSKf5ean_lg23aoRGXU7fyiFYWGqcX5864nS7i5ygqHg_0zAOWalHgXVLNd_-rYhcoZnVTEqTElgaAVN4M3sCOkdW7UN0TsKUBD4hGlYloeWMnFH1_3i_ddttmnNuX8gdrv0n61iCCRm6kELzz9rUAcYNMAp70SxE84-DiwteZHp31VTdODqb-uFNuy1QZG3D5Jm5jbNYtpDpl0_jv2HR2TkgVoYuFEwsiq8LlSgzV57dRdbpfIf3BA8e-DMWyBr-8TyW3D4kw6WPSEX4FaWvENytyF?></g></svg>